<svg width="14" height="61" viewBox="0 0 14 61" fill="none" xmlns="http://www.w3.org/2000/svg">
<path fill-rule="evenodd" clip-rule="evenodd" d="M10.0254 9.59645C12.1956 9.59645 13.955 7.60061 13.955 5.13862C13.955 2.67663 12.1956 0.680786 10.0254 0.680786C7.85511 0.680786 6.09578 2.67663 6.09578 5.13862C6.09578 7.60061 7.85511 9.59645 10.0254 9.59645ZM5.11338 35.229C7.28363 35.229 9.04297 33.2332 9.04297 30.7712C9.04297 28.3092 7.28363 26.3133 5.11338 26.3133C2.94313 26.3133 1.18379 28.3092 1.18379 30.7712C1.18379 33.2332 2.94313 35.229 5.11338 35.229ZM4.13098 60.8615C6.30123 60.8615 8.06057 58.8657 8.06057 56.4037C8.06057 53.9417 6.30123 51.9459 4.13098 51.9459C1.96073 51.9459 0.201391 53.9417 0.201391 56.4037C0.201391 58.8657 1.96073 60.8615 4.13098 60.8615Z" fill="black" fill-opacity="0.4"/>
</svg>
