<svg width="9" height="39" viewBox="0 0 9 39" fill="none" xmlns="http://www.w3.org/2000/svg">
<path fill-rule="evenodd" clip-rule="evenodd" d="M4.66244 6.00882C3.13734 5.74036 2.11923 4.28719 2.38843 2.76308C2.65762 1.23896 4.1122 0.221048 5.6373 0.489509C7.1624 0.757969 8.1805 2.21114 7.9113 3.73526C7.6421 5.25937 6.18754 6.27728 4.66244 6.00882ZM5.31152 22.4845C3.78642 22.216 2.76831 20.7628 3.03751 19.2387C3.30671 17.7146 4.76128 16.6967 6.28638 16.9651C7.81148 17.2336 8.82959 18.6868 8.56039 20.2109C8.29119 21.735 6.83663 22.7529 5.31152 22.4845ZM3.19917 38.474C1.67406 38.2056 0.655953 36.7524 0.925153 35.2283C1.19435 33.7041 2.64892 32.6862 4.17402 32.9547C5.69913 33.2232 6.71724 34.6763 6.44804 36.2004C6.17884 37.7246 4.72427 38.7425 3.19917 38.474Z" fill="black" fill-opacity="0.4"/>
</svg>
