<svg width="132" height="252" viewBox="0 0 132 252" fill="none" xmlns="http://www.w3.org/2000/svg">
<path fill-rule="evenodd" clip-rule="evenodd" d="M72.0423 132.417C73.0912 131.297 73.638 129.619 73.3693 127.89L72.8575 124.597C72.5107 122.366 70.9132 120.741 69.0272 120.487C68.6975 118.815 68.4132 117.154 68.1784 115.506C66.1952 101.579 69.5837 87.924 69.4245 74.5144C85.2216 89.8042 99.3928 116.205 111.938 153.718L130.492 147.524C129.785 144.54 129.051 141.593 128.293 138.683C130.434 137.303 132.936 130.977 131.135 129.919C129.275 128.825 127.305 128.056 125.23 127.603C108.217 69.4738 80.3966 26.9615 41.7677 0.0662842L38.3502 0.0662842L30.5951 0.0662842C33.8846 49.4153 -11.5509 157.155 4.22546 249.168C33.3857 256.555 75.0157 233.571 115.539 251.934C114.031 214.879 83.8266 171.348 72.0423 132.417V132.417Z" fill="#6C63FF"/>
</svg>
