<svg width="89" height="160" viewBox="0 0 89 160" fill="none" xmlns="http://www.w3.org/2000/svg">
<path fill-rule="evenodd" clip-rule="evenodd" d="M44.0507 78.7718C43.4359 77.949 43.2351 76.8423 43.6131 75.8051L44.3329 73.83C44.8207 72.4915 46.1211 71.6832 47.4746 71.7592C47.8891 70.7649 48.2706 69.7719 48.6159 68.7803C51.5329 60.4039 50.6446 51.5309 52.223 43.2488C39.4477 50.7603 26.6001 65.352 13.68 87.0236L1.31628 80.8939C2.14017 79.1343 2.97788 77.4005 3.82941 75.6926C2.47514 74.5732 1.40809 70.3475 2.78969 69.915C4.21657 69.4683 5.68567 69.2357 7.1937 69.212C25.5083 35.3293 49.7116 12.4519 79.8036 0.580017L82.2057 1.00279L87.6564 1.96214C79.9474 32.1067 100.1 104.428 78.9482 159.441C57.6448 160.407 30.8984 141.027 0.408154 147.383C5.52036 124.629 31.5103 101.416 44.0507 78.7718L44.0507 78.7718Z" fill="#6C63FF"/>
</svg>
