<svg width="40" height="43" viewBox="0 0 40 43" fill="none" xmlns="http://www.w3.org/2000/svg">
<path fill-rule="evenodd" clip-rule="evenodd" d="M22.2728 27.7133C23.0439 27.1121 23.9651 26.747 24.9546 26.747C27.6674 26.747 29.8666 29.4913 29.8666 32.3193C29.8666 35.2613 28.6419 37.5361 26.893 38.5012C27.8271 40.5728 28.7663 42.0763 29.8666 42.3494C34.1124 41.8622 39.6906 29.8903 39.6906 20.0602C39.6906 9.30072 32.1438 0 18.0778 0C5.43527 0 0.641669 5.91356 0.394664 11.1446C5.81224 12.8337 15.2787 13.4841 28.8842 13.3735V14.488L17.0954 15.6024L15.1306 22.2892C18.2565 22.0244 20.4903 24.4568 22.2728 27.7133Z" fill="#191847"/>
</svg>
