<svg width="580" height="327" viewBox="0 0 580 327" fill="none" xmlns="http://www.w3.org/2000/svg">
<path d="M534.406 326.359C542.892 326.359 549.771 325.212 549.771 323.797C549.771 322.382 542.892 321.235 534.406 321.235C525.921 321.235 519.042 322.382 519.042 323.797C519.042 325.212 525.921 326.359 534.406 326.359Z" fill="#F2F2F2"/>
<path d="M552.331 79.1077H551.051V106.011H552.331V79.1077Z" fill="#F2F2F2"/>
<path d="M538.247 61.8129H530.565V327H538.247V61.8129Z" fill="#F2F2F2"/>
<path d="M569.576 82.6308H499.236C498.465 82.6308 497.702 82.4666 496.999 82.1492C496.295 81.8317 495.668 81.3682 495.157 80.7895C494.646 80.2107 494.265 79.5299 494.037 78.7922C493.809 78.0545 493.741 77.2769 493.837 76.5108L502.799 4.7694C502.966 3.45333 503.606 2.24304 504.6 1.36512C505.593 0.487209 506.873 0.00187656 508.199 0H560.614C561.939 0.00187637 563.219 0.487209 564.213 1.36512C565.207 2.24304 565.847 3.45333 566.013 4.7694L574.976 76.5108C575.071 77.2769 575.003 78.0546 574.776 78.7922C574.548 79.5299 574.166 80.2107 573.656 80.7895C573.145 81.3682 572.517 81.8317 571.814 82.1492C571.11 82.4666 570.348 82.6308 569.576 82.6308V82.6308Z" fill="#F2F2F2"/>
<path d="M551.691 110.495C554.166 110.495 556.172 108.487 556.172 106.011C556.172 103.534 554.166 101.527 551.691 101.527C549.216 101.527 547.21 103.534 547.21 106.011C547.21 108.487 549.216 110.495 551.691 110.495Z" fill="#F2F2F2"/>
<path d="M80.3807 255.812C77.1464 267.039 67.7029 274.897 57.852 281.573C56.4766 282.506 55.1007 283.416 53.7244 284.306C53.715 284.31 53.7054 284.319 53.696 284.323C53.6298 284.365 53.5634 284.408 53.5017 284.451C53.2177 284.634 52.9335 284.817 52.6518 284.998L52.8066 285.068C52.8066 285.068 52.9585 285.149 52.7923 285.081C52.7428 285.06 52.6909 285.042 52.6416 285.021C46.9189 282.711 41.0945 280.232 36.7089 275.906C32.1594 271.413 29.5008 264.367 31.9643 258.465C32.288 257.692 32.6971 256.957 33.1837 256.275C33.3835 255.989 33.5987 255.715 33.8228 255.446C35.1816 253.787 36.9577 252.519 38.9684 251.774C40.979 251.029 43.1517 250.834 45.263 251.208C47.3743 251.581 49.348 252.511 50.9811 253.901C52.6143 255.291 53.8479 257.091 54.5553 259.116C55.279 252.374 49.7227 246.726 44.3756 242.559C39.0261 238.394 32.9476 233.858 31.9135 227.154C31.3359 223.423 32.6324 219.808 34.9941 216.906C35.0672 216.818 35.1403 216.73 35.2156 216.644C38.0905 213.264 42.134 211.093 46.5385 210.566C54.7412 209.713 62.7089 214.057 68.668 219.764C78.2591 228.945 84.0574 243.048 80.3807 255.812Z" fill="#F2F2F2"/>
<path d="M64.9626 241.128C66.5369 243.579 67.7455 246.246 68.5504 249.046C69.2311 251.548 69.5341 254.138 69.4492 256.73C69.2297 262.064 67.7332 267.267 65.0856 271.901C63.0913 275.417 60.6608 278.667 57.852 281.573C56.4766 282.506 55.1007 283.416 53.7244 284.306C53.7151 284.31 53.7055 284.319 53.696 284.323C53.6298 284.365 53.5635 284.408 53.5018 284.451C53.2177 284.634 52.9335 284.817 52.6518 284.998C52.6518 284.998 52.9585 285.149 52.7923 285.081C52.7428 285.06 52.691 285.042 52.6416 285.021C53.1545 280.813 52.6521 276.544 51.1763 272.571C49.7006 268.597 47.2946 265.036 44.1599 262.185C41.0177 259.377 37.2567 257.352 33.1837 256.275C33.3835 255.989 33.5987 255.715 33.8228 255.446C35.3959 255.887 36.9269 256.467 38.3979 257.178C43.6564 259.705 47.9621 263.859 50.6777 269.024C53.1146 273.715 54.1634 279.004 53.7009 284.27C53.9361 284.057 54.1715 283.839 54.3998 283.623C58.7485 279.567 62.6109 274.91 65.2249 269.537C67.4927 264.986 68.6073 259.947 68.4705 254.863C68.2572 249.32 66.05 244.186 62.8543 239.717C59.3518 234.948 55.2141 230.682 50.5562 227.035C45.862 223.273 40.7255 220.1 35.261 217.586C35.1377 217.529 35.0413 217.426 34.9916 217.299C34.942 217.173 34.9429 217.032 34.9942 216.906C35.0307 216.793 35.1102 216.699 35.2157 216.644C35.2699 216.62 35.3287 216.61 35.3877 216.612C35.4467 216.615 35.5044 216.63 35.5565 216.658C36.2312 216.969 36.9012 217.284 37.5658 217.613C43.1015 220.35 48.2759 223.766 52.97 227.78C57.5043 231.648 61.773 236.067 64.9626 241.128Z" fill="white"/>
<path d="M33.6895 284.083H69.132C69.5207 284.083 69.9051 284.166 70.2595 284.326C70.6139 284.486 70.9302 284.719 71.1875 285.011C71.4448 285.303 71.6372 285.646 71.7518 286.017C71.8665 286.389 71.9009 286.781 71.8526 287.167L67.3367 323.316C67.2529 323.979 66.9304 324.589 66.4296 325.031C65.9288 325.473 65.284 325.718 64.616 325.719H38.2055C37.5374 325.718 36.8927 325.473 36.3919 325.031C35.8911 324.589 35.5686 323.979 35.4848 323.316L30.9688 287.167C30.9206 286.781 30.9549 286.389 31.0696 286.017C31.1843 285.646 31.3767 285.303 31.634 285.011C31.8912 284.719 32.2076 284.486 32.562 284.326C32.9164 284.166 33.3007 284.083 33.6895 284.083V284.083Z" fill="#F2F2F2"/>
<path d="M149.249 325.997C151.699 325.997 153.685 324.01 153.685 321.559C153.685 319.107 151.699 317.12 149.249 317.12C146.8 317.12 144.814 319.107 144.814 321.559C144.814 324.01 146.8 325.997 149.249 325.997Z" fill="#CCCCCC"/>
<path d="M429.432 325.997C431.881 325.997 433.867 324.01 433.867 321.559C433.867 319.107 431.881 317.12 429.432 317.12C426.982 317.12 424.996 319.107 424.996 321.559C424.996 324.01 426.982 325.997 429.432 325.997Z" fill="#CCCCCC"/>
<path d="M230.569 259.794H161.078C157.844 259.79 154.743 258.503 152.457 256.215C150.17 253.927 148.884 250.825 148.88 247.589V200.248C148.884 197.012 150.17 193.91 152.457 191.622C154.743 189.334 157.844 188.047 161.078 188.043H230.569C233.803 188.047 236.903 189.334 239.19 191.622C241.477 193.91 242.763 197.012 242.767 200.248V247.589C242.763 250.825 241.477 253.927 239.19 256.215C236.903 258.503 233.803 259.79 230.569 259.794V259.794Z" fill="#E6E6E6"/>
<path d="M324.086 260.164H254.595C251.361 260.16 248.261 258.873 245.974 256.585C243.687 254.297 242.401 251.195 242.397 247.959V200.618C242.401 197.382 243.687 194.28 245.974 191.992C248.261 189.704 251.361 188.417 254.595 188.413H324.086C327.32 188.417 330.421 189.704 332.707 191.992C334.994 194.28 336.28 197.382 336.284 200.618V247.959C336.28 251.195 334.994 254.297 332.707 256.585C330.421 258.873 327.32 260.16 324.086 260.164V260.164Z" fill="#E6E6E6"/>
<path d="M417.603 260.534H348.112C344.878 260.53 341.778 259.243 339.491 256.955C337.204 254.667 335.918 251.564 335.914 248.329V200.988C335.918 197.752 337.204 194.65 339.491 192.362C341.778 190.074 344.878 188.787 348.112 188.783H417.603C420.837 188.787 423.938 190.074 426.225 192.362C428.511 194.65 429.798 197.752 429.801 200.988V248.329C429.798 251.565 428.511 254.667 426.225 256.955C423.938 259.243 420.837 260.53 417.603 260.534V260.534Z" fill="#E6E6E6"/>
<path d="M444.217 257.205H138.161V321.189H444.217V257.205Z" fill="#E6E6E6"/>
<path d="M149.249 321.559H135.943C129.217 321.559 123.745 315.342 123.745 307.701V240.932H149.249V321.559Z" fill="#E6E6E6"/>
<path d="M442.738 321.559H429.432V230.576H454.936V305.921C454.936 314.544 449.464 321.559 442.738 321.559Z" fill="#E6E6E6"/>
<path d="M243.136 270.52H149.25V250.548C180.545 232.585 211.841 232.585 243.136 250.548V270.52Z" fill="#CCCCCC"/>
<path d="M336.654 270.889H242.767V250.918C274.062 232.955 305.358 232.955 336.654 250.918V270.889Z" fill="#CCCCCC"/>
<path d="M430.171 271.259H336.284V251.287C367.58 233.325 398.875 233.325 430.171 251.287V271.259Z" fill="#CCCCCC"/>
<path d="M131.137 257.945C143.182 257.945 152.946 248.175 152.946 236.124C152.946 224.072 143.182 214.303 131.137 214.303C119.093 214.303 109.329 224.072 109.329 236.124C109.329 248.175 119.093 257.945 131.137 257.945Z" fill="#CCCCCC"/>
<path d="M450.501 257.205C462.545 257.205 472.309 247.435 472.309 235.384C472.309 223.333 462.545 213.563 450.501 213.563C438.456 213.563 428.692 223.333 428.692 235.384C428.692 247.435 438.456 257.205 450.501 257.205Z" fill="#CCCCCC"/>
<path d="M386.259 192.635C386.31 192.986 386.333 193.34 386.328 193.694L412.469 211.722L419.44 208.42L425.796 218.295L414.022 225.341C413.071 225.91 411.961 226.155 410.859 226.04C409.757 225.924 408.722 225.453 407.91 224.699L381.435 200.113C380.122 200.483 378.727 200.444 377.436 200.001C376.145 199.559 375.019 198.733 374.209 197.635C373.398 196.536 372.941 195.217 372.898 193.852C372.855 192.487 373.229 191.142 373.969 189.995C374.709 188.847 375.78 187.953 377.041 187.43C378.302 186.907 379.691 186.78 381.026 187.067C382.36 187.353 383.575 188.04 384.51 189.034C385.445 190.029 386.055 191.285 386.259 192.635V192.635Z" fill="#FFB8B8"/>
<path d="M412.973 210.17C413.088 209.773 413.287 209.404 413.557 209.09C413.828 208.777 414.162 208.525 414.539 208.352L427.683 202.326C429.458 201.17 431.619 200.765 433.692 201.201C435.765 201.636 437.58 202.876 438.741 204.649C439.901 206.421 440.312 208.582 439.883 210.658C439.454 212.733 438.219 214.553 436.451 215.719L425.584 225.334C425.274 225.608 424.909 225.812 424.512 225.932C424.116 226.053 423.699 226.086 423.289 226.03C422.878 225.975 422.485 225.831 422.135 225.609C421.785 225.388 421.488 225.094 421.262 224.746L413.325 212.545C413.099 212.198 412.951 211.806 412.89 211.396C412.829 210.986 412.857 210.568 412.973 210.17Z" fill="#6C63FF"/>
<path d="M385.93 193.81L385.799 193.819L385.44 188.858C385.325 187.272 384.3 186.054 383.15 186.138L375.528 186.689C374.378 186.773 372.261 188.218 372.376 189.804L372.469 191.082L374.344 217.021C374.459 218.607 376.761 219.733 377.911 219.649L385.533 219.098C386.683 219.014 387.523 217.661 387.408 216.076L386.054 197.351L386.185 197.341L385.93 193.81Z" fill="#3F3D56"/>
<path d="M384.998 188.91L386.963 216.087C387.049 217.272 386.422 218.282 385.563 218.345L377.905 218.899C377.046 218.961 376.28 218.051 376.195 216.867L374.229 189.69C374.144 188.506 374.77 187.495 375.629 187.433L376.558 187.366C376.494 187.607 376.508 187.863 376.598 188.097C376.688 188.33 376.85 188.529 377.06 188.665C377.149 188.707 377.246 188.726 377.344 188.72L381.711 188.404C382.119 188.374 382.416 187.893 382.375 187.33C382.366 187.2 382.338 187.072 382.293 186.95L383.288 186.878C384.147 186.816 384.912 187.726 384.998 188.91Z" fill="white"/>
<path d="M277.556 251.665L275.03 244.23L302.489 230.943L306.218 241.917L277.556 251.665Z" fill="#FFB8B8"/>
<path d="M270.997 256.012L262.852 232.038L263.155 231.935C264.38 231.518 265.674 231.347 266.965 231.431C268.256 231.515 269.518 231.853 270.678 232.425C271.838 232.996 272.875 233.792 273.728 234.764C274.581 235.737 275.235 236.868 275.651 238.094L275.652 238.094L280.626 252.737L270.997 256.012Z" fill="#2F2E41"/>
<path d="M386.54 256.971C380.651 257.302 374.778 256.072 369.516 253.405L337.227 231.426L299.523 245.396C298.523 245.736 297.43 245.684 296.466 245.25C295.502 244.816 294.739 244.032 294.33 243.056L292.482 238.609C292.061 237.609 292.048 236.483 292.448 235.473C292.848 234.464 293.628 233.652 294.62 233.213L330.64 217.027C334.965 215.091 339.816 214.671 344.409 215.835L394.415 228.586L407.633 244.292L407.486 244.495C400.997 253.452 393.3 256.482 386.54 256.971Z" fill="#2F2E41"/>
<path d="M427.38 191.34C436.064 191.34 443.103 184.297 443.103 175.608C443.103 166.919 436.064 159.875 427.38 159.875C418.696 159.875 411.657 166.919 411.657 175.608C411.657 184.297 418.696 191.34 427.38 191.34Z" fill="#FFB8B8"/>
<path d="M411.24 251.295L385.934 232.452L403.192 220.179C402.699 218.589 400.509 209.501 412.485 203.306C416.276 201.346 419.007 199.658 420.603 198.29C422.867 196.336 425.768 195.277 428.758 195.314C430.642 195.344 432.494 195.812 434.167 196.682C435.839 197.552 437.287 198.799 438.394 200.326C439.502 201.852 440.239 203.615 440.548 205.476C440.856 207.336 440.728 209.243 440.173 211.046C437.675 219.168 433.697 229.931 428.928 235.078C423.533 240.894 417.682 246.268 411.431 251.151L411.24 251.295Z" fill="#6C63FF"/>
<path d="M281.568 258.254L279.042 250.818L306.502 237.531L310.23 248.505L281.568 258.254Z" fill="#FFB8B8"/>
<path d="M275.01 262.6L266.865 238.626L267.168 238.523C268.392 238.106 269.687 237.935 270.978 238.019C272.269 238.103 273.53 238.441 274.691 239.013C275.851 239.585 276.887 240.38 277.741 241.352C278.594 242.325 279.248 243.457 279.664 244.682L279.664 244.682L284.639 259.325L275.01 262.6Z" fill="#2F2E41"/>
<path d="M390.553 263.56C384.663 263.891 378.791 262.661 373.529 259.994L341.239 238.014L303.536 251.984C302.535 252.325 301.443 252.273 300.479 251.838C299.515 251.404 298.751 250.62 298.342 249.645L296.495 245.197C296.073 244.197 296.061 243.071 296.461 242.062C296.861 241.053 297.64 240.241 298.632 239.801L334.653 223.615C338.978 221.679 343.829 221.259 348.422 222.424L398.427 235.174L411.645 250.88L411.498 251.083C405.01 260.041 397.313 263.071 390.553 263.56Z" fill="#2F2E41"/>
<path d="M383.295 211.507C383.491 211.803 383.663 212.113 383.811 212.435L415.148 217.528L420.035 211.558L430.005 217.759L422.38 229.17C421.764 230.092 420.866 230.789 419.82 231.157C418.774 231.524 417.638 231.543 416.581 231.209L382.136 220.332C381.107 221.229 379.83 221.792 378.474 221.945C377.117 222.097 375.747 221.834 374.544 221.188C373.342 220.543 372.364 219.546 371.742 218.331C371.119 217.116 370.881 215.74 371.058 214.387C371.236 213.033 371.822 211.765 372.737 210.753C373.653 209.74 374.854 209.03 376.183 208.718C377.511 208.405 378.903 208.504 380.174 209.003C381.444 209.501 382.533 210.375 383.295 211.507V211.507Z" fill="#FFB8B8"/>
<path d="M414.94 215.911C414.873 215.502 414.896 215.083 415.006 214.684C415.116 214.285 415.311 213.914 415.577 213.597L424.877 202.52C425.987 200.714 427.766 199.423 429.826 198.928C431.885 198.433 434.057 198.776 435.864 199.881C437.671 200.986 438.967 202.763 439.467 204.822C439.967 206.882 439.631 209.055 438.531 210.867L432.825 224.211C432.662 224.591 432.419 224.933 432.113 225.211C431.806 225.489 431.443 225.698 431.049 225.824C430.654 225.949 430.237 225.988 429.826 225.938C429.415 225.887 429.02 225.749 428.668 225.532L416.274 217.905C415.921 217.688 415.62 217.398 415.389 217.054C415.159 216.709 415.006 216.32 414.94 215.911V215.911Z" fill="#6C63FF"/>
<path d="M423.176 192.934C427.745 187.053 430.279 179.844 430.395 172.396C428.244 173.995 425.81 175.171 423.221 175.863C420.474 176.595 417.453 176.742 414.866 175.563C411.224 173.903 409.07 169.67 409.484 165.687C409.897 161.705 412.648 158.147 416.229 156.361C419.895 154.645 424.077 154.392 427.923 155.653C429.958 153.919 432.45 152.808 435.099 152.455C437.748 152.101 440.443 152.519 442.861 153.658C448.427 156.391 451.505 162.72 452.039 168.901C452.572 175.081 450.986 181.226 449.412 187.226L449.235 187.904C448.745 189.772 447.321 193.356 447.321 193.356C447.321 193.356 439.053 191.724 435.768 190.677C431.006 192.399 423.176 192.934 423.176 192.934Z" fill="#2F2E41"/>
<path d="M383.762 194.442L377.025 194.93C376.856 194.942 376.688 194.887 376.56 194.775C376.432 194.664 376.353 194.507 376.34 194.337C376.328 194.168 376.384 194 376.495 193.872C376.606 193.743 376.763 193.664 376.933 193.652L383.67 193.164C383.754 193.158 383.838 193.168 383.918 193.195C383.998 193.221 384.072 193.263 384.136 193.318C384.199 193.373 384.252 193.44 384.289 193.516C384.327 193.591 384.35 193.673 384.356 193.757C384.362 193.841 384.351 193.925 384.325 194.005C384.298 194.085 384.256 194.159 384.201 194.223C384.146 194.286 384.079 194.338 384.003 194.376C383.928 194.414 383.846 194.436 383.762 194.442Z" fill="#3F3D56"/>
<path d="M383.993 197.637L377.256 198.124C377.172 198.131 377.088 198.12 377.008 198.094C376.928 198.067 376.854 198.025 376.79 197.97C376.726 197.915 376.674 197.848 376.636 197.773C376.599 197.698 376.576 197.616 376.57 197.532C376.564 197.448 376.574 197.363 376.601 197.283C376.627 197.203 376.67 197.13 376.725 197.066C376.78 197.002 376.847 196.95 376.922 196.913C376.998 196.875 377.08 196.852 377.164 196.847L383.901 196.359C384.07 196.347 384.237 196.402 384.366 196.513C384.494 196.624 384.573 196.782 384.585 196.951C384.598 197.121 384.542 197.288 384.431 197.417C384.32 197.545 384.162 197.624 383.993 197.637V197.637Z" fill="#3F3D56"/>
<path d="M384.224 200.831L377.487 201.319C377.318 201.331 377.151 201.275 377.023 201.164C376.895 201.053 376.816 200.895 376.804 200.726C376.791 200.557 376.847 200.39 376.958 200.261C377.068 200.133 377.226 200.053 377.395 200.041L384.132 199.553C384.301 199.541 384.468 199.596 384.597 199.708C384.725 199.819 384.804 199.976 384.816 200.146C384.829 200.315 384.773 200.483 384.662 200.611C384.551 200.74 384.393 200.819 384.224 200.831V200.831Z" fill="#3F3D56"/>
<path d="M579.36 327H0.640177C0.470391 327 0.307559 326.932 0.187503 326.812C0.0674465 326.692 0 326.529 0 326.359C0 326.19 0.0674465 326.027 0.187503 325.906C0.307559 325.786 0.470391 325.719 0.640177 325.719H579.36C579.53 325.719 579.692 325.786 579.813 325.906C579.933 326.027 580 326.19 580 326.359C580 326.529 579.933 326.692 579.813 326.812C579.692 326.932 579.53 327 579.36 327Z" fill="#3F3D56"/>
<path d="M307.784 113.697H243.126C241.598 113.696 240.134 113.088 239.054 112.007C237.974 110.926 237.366 109.461 237.364 107.932V52.2047C237.366 50.6763 237.974 49.2109 239.054 48.1302C240.134 47.0494 241.598 46.4415 243.126 46.4398H307.784C309.311 46.4415 310.776 47.0495 311.856 48.1302C312.936 49.211 313.544 50.6763 313.545 52.2047V107.932C313.544 109.461 312.936 110.926 311.856 112.007C310.776 113.088 309.311 113.696 307.784 113.697V113.697ZM243.126 47.7209C241.938 47.7222 240.799 48.195 239.959 49.0356C239.119 49.8762 238.646 51.0159 238.645 52.2047V107.932C238.646 109.121 239.119 110.261 239.959 111.101C240.799 111.942 241.938 112.415 243.126 112.416H307.784C308.972 112.415 310.111 111.942 310.951 111.101C311.791 110.261 312.264 109.121 312.265 107.932V52.2047C312.264 51.0159 311.791 49.8762 310.951 49.0356C310.111 48.195 308.972 47.7222 307.784 47.7209H243.126Z" fill="#F2F2F2"/>
<path d="M298.33 105.05H252.579C251.137 105.048 249.754 104.474 248.733 103.453C247.713 102.433 247.14 101.049 247.138 99.6053V60.5318C247.14 59.0883 247.713 57.7044 248.733 56.6837C249.754 55.6629 251.137 55.0888 252.579 55.0872H298.33C299.773 55.0888 301.156 55.6629 302.176 56.6837C303.196 57.7044 303.77 59.0883 303.772 60.5318V99.6053C303.77 101.049 303.196 102.433 302.176 103.453C301.156 104.474 299.773 105.048 298.33 105.05V105.05Z" fill="#E6E6E6"/>
<path d="M275.775 38.1126C277.543 38.1126 278.976 36.6787 278.976 34.9099C278.976 33.1411 277.543 31.7072 275.775 31.7072C274.007 31.7072 272.574 33.1411 272.574 34.9099C272.574 36.6787 274.007 38.1126 275.775 38.1126Z" fill="#F2F2F2"/>
<path d="M282.505 47.4096L275.777 36.1596L269.087 47.4077L267.986 46.753L275.773 33.6602L283.603 46.7511L282.505 47.4096Z" fill="#F2F2F2"/>
<path d="M283.137 75.5847C283.135 74.6153 283.029 73.6489 282.82 72.7023H273.214C272.535 72.7023 271.884 72.9722 271.404 73.4527C270.923 73.9332 270.654 74.5849 270.654 75.2645V88.9877C274.042 88.7471 277.214 87.2306 279.531 84.7437C281.847 82.2568 283.136 78.9842 283.137 75.5847V75.5847Z" fill="#6C63FF"/>
<path d="M269.693 89.6768C267.037 89.6778 264.434 88.927 262.186 87.5112C259.938 86.0954 258.136 84.0724 256.988 81.6755C255.84 79.2787 255.392 76.6058 255.698 73.9655C256.003 71.3252 257.048 68.8251 258.713 66.7538C260.377 64.6825 262.594 63.1245 265.105 62.2596C267.617 61.3947 270.322 61.2582 272.908 61.8659C275.494 62.4736 277.856 63.8007 279.72 65.6939C281.585 67.5872 282.876 69.9694 283.445 72.5656L283.615 73.3428H273.214C272.705 73.3434 272.217 73.546 271.857 73.9063C271.497 74.2666 271.294 74.755 271.294 75.2645V89.5846L270.588 89.6346C270.291 89.6562 269.995 89.6768 269.693 89.6768ZM269.693 62.7738C266.298 62.7738 263.041 64.1235 260.64 66.526C258.239 68.9286 256.89 72.1871 256.89 75.5847C256.89 78.9824 258.239 82.2409 260.64 84.6435C263.041 87.046 266.298 88.3957 269.693 88.3957C269.801 88.3957 269.907 88.3926 270.013 88.3876V75.2645C270.014 74.4154 270.352 73.6013 270.952 73.0009C271.552 72.4005 272.366 72.0627 273.214 72.0617H281.998C281.223 69.3927 279.606 67.0461 277.388 65.3722C275.17 63.6983 272.471 62.7868 269.693 62.7738Z" fill="white"/>
<path d="M288.579 93.8404H273.214C272.366 93.8394 271.552 93.5016 270.952 92.9012C270.352 92.3008 270.014 91.4867 270.013 90.6376V88.391L270.608 88.3488C272.441 88.2222 274.225 87.7013 275.838 86.8218C277.451 85.9422 278.856 84.7247 279.956 83.2523C281.056 81.78 281.825 80.0875 282.211 78.2904C282.598 76.4933 282.592 74.6339 282.194 72.8392L282.024 72.0617H288.579C289.427 72.0627 290.241 72.4004 290.841 73.0009C291.441 73.6013 291.778 74.4153 291.779 75.2644V90.6376C291.778 91.4867 291.441 92.3008 290.841 92.9012C290.241 93.5016 289.427 93.8394 288.579 93.8404V93.8404ZM271.294 89.5717V90.6376C271.294 91.1471 271.497 91.6355 271.857 91.9958C272.217 92.356 272.705 92.5587 273.214 92.5593H288.579C289.088 92.5587 289.576 92.356 289.936 91.9958C290.296 91.6355 290.498 91.1471 290.499 90.6376V75.2644C290.498 74.755 290.296 74.2665 289.936 73.9063C289.576 73.546 289.088 73.3434 288.579 73.3428H283.593C283.715 74.084 283.776 74.8337 283.777 75.5847C283.765 79.0401 282.489 82.3714 280.188 84.9487C277.888 87.526 274.724 89.1707 271.294 89.5717Z" fill="white"/>
</svg>
