<svg width="470" height="318" viewBox="0 0 470 318" fill="none" xmlns="http://www.w3.org/2000/svg">
<path d="M0 131.223C0 92.3186 31.5197 0 70.4012 0C109.283 0 140.802 92.3186 140.802 131.223C140.797 149.902 133.377 167.815 120.175 181.021C106.973 194.227 89.0692 201.646 70.4012 201.646C51.7331 201.646 33.8294 194.227 20.6272 181.021C7.42496 167.815 0.00535313 149.902 0 131.223V131.223Z" fill="#6C63FF"/>
<path d="M70.4012 302.603C70.2476 302.603 70.1004 302.542 69.9918 302.433C69.8833 302.325 69.8223 302.177 69.8223 302.024V59.1595C69.8223 59.0058 69.8833 58.8585 69.9918 58.7499C70.1004 58.6413 70.2476 58.5802 70.4012 58.5802C70.5547 58.5802 70.7019 58.6413 70.8105 58.7499C70.9191 58.8585 70.98 59.0058 70.98 59.1595V302.024C70.98 302.177 70.9191 302.325 70.8105 302.433C70.7019 302.542 70.5547 302.603 70.4012 302.603Z" fill="#3F3D56"/>
<path d="M70.4011 106.046C70.3251 106.046 70.2498 106.031 70.1795 106.002C70.1093 105.973 70.0455 105.93 69.9918 105.876L42.1271 77.9953C42.0728 77.9417 42.0295 77.8778 42 77.8074C41.9704 77.7369 41.955 77.6613 41.9548 77.5849C41.9545 77.5085 41.9694 77.4328 41.9985 77.3622C42.0276 77.2916 42.0704 77.2274 42.1244 77.1734C42.1784 77.1193 42.2425 77.0765 42.3131 77.0474C42.3837 77.0183 42.4594 77.0035 42.5357 77.0038C42.6121 77.004 42.6876 77.0194 42.758 77.049C42.8284 77.0786 42.8922 77.1219 42.9458 77.1763L70.8105 105.057C70.8915 105.138 70.9466 105.242 70.9689 105.354C70.9912 105.466 70.9797 105.583 70.9359 105.689C70.8921 105.794 70.8179 105.885 70.7227 105.948C70.6275 106.012 70.5156 106.046 70.4011 106.046V106.046Z" fill="#3F3D56"/>
<path d="M70.4011 154.314C70.2866 154.314 70.1747 154.28 70.0795 154.216C69.9843 154.153 69.9101 154.062 69.8663 153.956C69.8225 153.85 69.8111 153.734 69.8334 153.622C69.8557 153.509 69.9108 153.406 69.9918 153.325L116.656 106.633C116.71 106.578 116.774 106.535 116.844 106.506C116.914 106.476 116.99 106.461 117.066 106.46C117.143 106.46 117.218 106.475 117.289 106.504C117.359 106.533 117.424 106.576 117.477 106.63C117.531 106.684 117.574 106.748 117.603 106.819C117.632 106.889 117.647 106.965 117.647 107.041C117.647 107.118 117.631 107.193 117.602 107.264C117.572 107.334 117.529 107.398 117.475 107.452L70.8105 154.144C70.7568 154.198 70.693 154.241 70.6227 154.27C70.5525 154.299 70.4772 154.314 70.4011 154.314V154.314Z" fill="#3F3D56"/>
<path d="M28.5205 317.776C28.6211 317.854 28.7269 317.924 28.8285 318H115.137C116.828 311.144 117.426 304.28 114.9 298.32C111.301 289.827 100.648 284.525 92.1798 288.172C90.1734 289.06 88.4256 290.444 87.1009 292.193C83.7914 286.266 77.855 281.797 71.0027 281.802C62.4179 281.808 55.2801 288.832 52.9509 296.947C49.1998 290.611 41.7909 286.184 34.5494 288.089C22.4371 291.274 18.6113 310.114 28.5205 317.776Z" fill="#F2F2F2"/>
<path d="M368.754 183.786C368.754 155.83 391.419 89.4918 419.377 89.4918C447.335 89.4918 470 155.83 470 183.786C469.991 197.214 464.653 210.089 455.161 219.581C445.668 229.073 432.797 234.405 419.377 234.405C405.957 234.405 393.086 229.073 383.593 219.581C374.1 210.089 368.763 197.214 368.754 183.786V183.786Z" fill="#E6E6E6"/>
<path d="M419.377 306.936C419.322 306.936 419.268 306.925 419.218 306.904C419.167 306.883 419.121 306.853 419.083 306.814C419.044 306.775 419.013 306.729 418.992 306.679C418.971 306.628 418.961 306.574 418.961 306.52V132.003C418.961 131.892 419.005 131.787 419.083 131.709C419.161 131.631 419.267 131.588 419.377 131.588C419.487 131.588 419.593 131.631 419.671 131.709C419.749 131.787 419.793 131.892 419.793 132.003V306.52C419.793 306.574 419.782 306.628 419.761 306.679C419.741 306.729 419.71 306.775 419.671 306.814C419.633 306.853 419.587 306.883 419.536 306.904C419.486 306.925 419.432 306.936 419.377 306.936V306.936Z" fill="#3F3D56"/>
<path d="M419.377 165.694C419.322 165.694 419.268 165.684 419.218 165.663C419.167 165.642 419.121 165.611 419.083 165.572L399.046 145.538C398.968 145.46 398.924 145.354 398.924 145.243C398.924 145.133 398.968 145.027 399.046 144.949C399.124 144.871 399.23 144.827 399.341 144.827C399.451 144.827 399.557 144.871 399.635 144.949L419.671 164.984C419.729 165.042 419.769 165.116 419.785 165.197C419.801 165.278 419.793 165.361 419.761 165.437C419.73 165.514 419.677 165.579 419.608 165.624C419.54 165.67 419.459 165.694 419.377 165.694V165.694Z" fill="#3F3D56"/>
<path d="M419.377 200.379C419.295 200.379 419.214 200.354 419.146 200.308C419.077 200.263 419.024 200.198 418.992 200.122C418.961 200.046 418.953 199.962 418.969 199.881C418.985 199.8 419.024 199.726 419.083 199.668L452.637 166.116C452.715 166.038 452.821 165.994 452.932 165.994C453.042 165.994 453.148 166.038 453.226 166.116C453.304 166.194 453.348 166.3 453.348 166.41C453.348 166.52 453.304 166.626 453.226 166.704L419.671 200.257C419.633 200.295 419.587 200.326 419.536 200.347C419.486 200.368 419.432 200.379 419.377 200.379V200.379Z" fill="#3F3D56"/>
<path d="M389.262 317.839C389.334 317.895 389.41 317.945 389.483 318H451.545C452.761 313.073 453.191 308.141 451.374 303.858C448.786 297.755 441.127 293.946 435.037 296.567C433.595 297.204 432.338 298.198 431.385 299.456C429.005 295.196 424.737 291.985 419.809 291.989C413.636 291.993 408.504 297.041 406.829 302.871C404.132 298.319 398.804 295.138 393.597 296.506C384.888 298.795 382.137 312.333 389.262 317.839Z" fill="#F2F2F2"/>
<path d="M244.585 200.235C248.857 208.691 244.394 220.605 235.065 223.28C232.441 224.032 229.468 223.953 227.157 222.368C225.249 221.058 223.873 218.743 224.054 216.387C224.404 211.852 230.175 210.167 233.849 211.63C238.825 213.613 241.053 219.453 241.749 224.356C242.6 230.351 241.431 236.545 239.09 242.083C234.404 253.171 225.128 261.81 215.932 269.225C206.496 276.822 196.156 283.22 185.147 288.27C183.764 288.905 182.372 289.518 180.97 290.11C180.773 290.227 180.629 290.418 180.571 290.64C180.513 290.863 180.544 291.099 180.659 291.299C180.779 291.493 180.969 291.634 181.19 291.692C181.412 291.75 181.647 291.721 181.847 291.61C193.956 286.481 205.331 279.765 215.672 271.638C225.682 263.778 235.783 254.5 240.776 242.52C243.265 236.548 244.385 229.952 243.367 223.524C242.511 218.112 239.821 212.125 234.395 209.987C230.114 208.301 224.147 210.078 222.626 214.731C221.79 217.288 222.656 220.055 224.311 222.078C225.217 223.144 226.343 224.001 227.613 224.588C228.883 225.176 230.265 225.48 231.663 225.48C237.246 225.596 242.355 222.011 245.158 217.36C247.8 212.992 248.604 207.754 247.395 202.794C247.083 201.605 246.644 200.453 246.085 199.358C245.581 198.36 244.082 199.238 244.585 200.235V200.235Z" fill="#CCCCCC"/>
<path d="M340.749 305.434L334.508 307.638L323.042 284.602L332.253 281.349L340.749 305.434Z" fill="#A0616A"/>
<path d="M329.421 307.428L341.457 303.178L344.131 310.76L324.518 317.687C324.167 316.692 324.015 315.636 324.071 314.582C324.127 313.527 324.391 312.494 324.846 311.542C325.301 310.589 325.94 309.736 326.725 309.03C327.51 308.324 328.426 307.78 329.421 307.428V307.428Z" fill="#2F2E41"/>
<path d="M272.983 311.532L266.365 311.531L263.218 285.989L272.986 285.99L272.983 311.532Z" fill="#A0616A"/>
<path d="M261.638 309.639H274.401V317.68H253.602C253.602 316.624 253.81 315.578 254.213 314.603C254.617 313.627 255.209 312.741 255.955 311.994C256.702 311.247 257.588 310.655 258.563 310.251C259.538 309.847 260.583 309.639 261.638 309.639V309.639Z" fill="#2F2E41"/>
<path d="M272.371 304.031C272.152 304.031 271.935 304.004 271.723 303.95L261.963 301.474C261.367 301.324 260.844 300.968 260.486 300.469C260.128 299.97 259.957 299.36 260.005 298.748L269.332 176.963L269.621 176.985L269.332 176.963C269.531 174.437 270.64 172.069 272.452 170.299C274.265 168.53 276.658 167.479 279.187 167.342L308.684 165.811L313.644 242.238L343.061 295.249C343.245 295.58 343.354 295.946 343.382 296.323C343.409 296.7 343.355 297.078 343.222 297.432C343.089 297.786 342.881 298.106 342.612 298.372C342.342 298.637 342.019 298.84 341.663 298.968L328.113 303.833C327.501 304.057 326.826 304.041 326.225 303.788C325.623 303.536 325.139 303.066 324.868 302.472L290.275 227.511C290.198 227.343 290.069 227.205 289.908 227.115C289.747 227.026 289.561 226.99 289.379 227.013C289.196 227.036 289.025 227.116 288.891 227.243C288.757 227.37 288.666 227.536 288.633 227.717L274.925 301.897C274.814 302.495 274.498 303.035 274.032 303.424C273.565 303.814 272.978 304.029 272.371 304.031V304.031Z" fill="#2F2E41"/>
<path d="M240.004 195.895C240.318 195.166 240.788 194.514 241.381 193.986C241.974 193.458 242.675 193.067 243.436 192.84C244.196 192.612 244.997 192.555 245.782 192.67C246.567 192.786 247.317 193.073 247.98 193.51L258.258 186.561L264.001 191.781L249.349 201.391C248.541 202.455 247.371 203.186 246.06 203.445C244.749 203.704 243.389 203.473 242.237 202.796C241.085 202.118 240.222 201.042 239.81 199.77C239.399 198.498 239.468 197.119 240.004 195.895L240.004 195.895Z" fill="#A0616A"/>
<path d="M295.881 119.414C303.733 119.414 310.099 113.044 310.099 105.187C310.099 97.3299 303.733 90.9605 295.881 90.9605C288.028 90.9605 281.663 97.3299 281.663 105.187C281.663 113.044 288.028 119.414 295.881 119.414Z" fill="#A0616A"/>
<path d="M276.535 170.556C275.743 170.555 274.961 170.379 274.244 170.041C273.528 169.703 272.894 169.211 272.389 168.601C271.883 167.991 271.518 167.277 271.32 166.509C271.121 165.742 271.093 164.94 271.239 164.161L273.721 150.888C271.072 141.264 284.565 132.779 285.142 132.422L293.56 129.192L293.664 129.462L293.56 129.192C295.143 128.586 296.85 128.381 298.531 128.596C300.211 128.811 301.812 129.439 303.191 130.424C304.57 131.409 305.683 132.72 306.432 134.241C307.181 135.762 307.542 137.444 307.483 139.138L306.462 168.326L276.949 170.541C276.81 170.551 276.672 170.556 276.535 170.556Z" fill="#6C63FF"/>
<path d="M288.853 261.568C282.37 261.492 275.901 260.975 269.488 260.019L269.217 259.977L269.245 259.704C269.755 254.718 281.777 137.509 284.378 129.247C285.05 127.112 287.141 125.434 290.592 124.26C301.44 120.571 313.624 126.042 318.331 136.717C320.06 140.656 320.912 144.924 320.828 149.226L318.64 252.409L318.409 252.453C318.348 252.464 312.289 253.649 304.289 258.822C301.033 260.927 294.996 261.568 288.853 261.568Z" fill="#3F3D56"/>
<path opacity="0.05098" d="M305.082 149.279C312.603 162.055 308.809 168.858 301.694 181.896C297.747 189.128 285.571 198.071 279.868 192.322C274.164 186.573 278.672 178.758 281.149 170.82C283.625 162.882 288.953 156.346 294.514 150.441C298.479 146.231 306.666 149.687 305.082 149.279Z" fill="black"/>
<path d="M256.178 199.269C255.604 199.268 255.046 199.078 254.591 198.729C254.136 198.379 253.809 197.889 253.661 197.335L251.856 190.581C251.72 190.069 251.744 189.527 251.922 189.029C252.101 188.53 252.427 188.097 252.856 187.788L282.082 166.864L286.021 144.481C286.287 142.968 286.865 141.528 287.718 140.251C288.571 138.974 289.68 137.889 290.975 137.065C292.27 136.241 293.722 135.695 295.239 135.463C296.756 135.231 298.305 135.317 299.787 135.717C301.269 136.117 302.651 136.821 303.846 137.784C305.042 138.748 306.023 139.95 306.729 141.313C307.434 142.677 307.848 144.173 307.944 145.706C308.041 147.238 307.817 148.774 307.287 150.216L298.963 172.877C297.337 177.328 294.051 180.976 289.796 183.057L257.325 199.001C256.968 199.177 256.575 199.268 256.178 199.269Z" fill="#3F3D56"/>
<path d="M289.877 99.7862C289.194 101.182 288.024 102.279 286.589 102.872C285.153 103.465 283.55 103.512 282.082 103.004C280.614 102.497 279.382 101.47 278.618 100.117C277.854 98.7641 277.611 97.1783 277.934 95.6582C278.537 92.8207 279.994 90.236 282.108 88.2511C284.223 86.2662 286.893 84.9763 289.762 84.5547C292.63 84.1331 295.559 84.6 298.155 85.8926C300.75 87.1852 302.888 89.2416 304.282 91.7856C308.781 88.6372 315.844 90.2275 318.562 95.001C321.281 99.7744 319.047 106.665 314.046 108.933C311.557 110.062 311.742 114.419 314.318 115.332C315.177 115.637 315.921 116.202 316.445 116.949C316.97 117.696 317.249 118.587 317.244 119.5C317.239 120.412 316.95 121.301 316.418 122.042C315.885 122.783 315.136 123.34 314.273 123.636C311.032 124.745 307.73 125.867 304.306 125.953C300.882 126.04 297.255 124.932 295.094 122.273C292.933 119.614 292.783 115.25 295.332 112.961C296.625 111.744 297.486 110.138 297.785 108.387C298.083 106.636 297.803 104.835 296.987 103.258C295.286 100.153 290.735 98.034 289.877 99.7862Z" fill="#2F2E41"/>
<path d="M198.05 314.913C197.388 314.912 196.738 314.737 196.165 314.404C195.593 314.071 195.118 313.593 194.79 313.018C194.461 312.443 194.29 311.792 194.293 311.129C194.297 310.467 194.475 309.817 194.81 309.246V309.246L200.076 300.249L206.57 304.055L201.303 313.052C200.971 313.619 200.495 314.089 199.925 314.416C199.354 314.743 198.707 314.914 198.05 314.913V314.913Z" fill="#6C63FF"/>
<path d="M218.716 294.351C221.274 294.351 223.347 292.277 223.347 289.717C223.347 287.158 221.274 285.083 218.716 285.083C216.158 285.083 214.085 287.158 214.085 289.717C214.085 292.277 216.158 294.351 218.716 294.351Z" fill="#6C63FF"/>
<path d="M177.674 314.913C177.012 314.912 176.362 314.737 175.79 314.404C175.217 314.071 174.742 313.593 174.414 313.018C174.085 312.443 173.914 311.792 173.917 311.129C173.921 310.467 174.099 309.817 174.434 309.246L179.7 300.249L186.194 304.055L180.927 313.052C180.595 313.619 180.119 314.089 179.549 314.416C178.978 314.742 178.332 314.914 177.674 314.913V314.913Z" fill="#6C63FF"/>
<path d="M207.995 308.9H184.66C181.485 308.896 178.44 307.632 176.195 305.385C173.949 303.139 172.686 300.092 172.682 296.915V293.368C172.684 292.264 173.122 291.206 173.902 290.426C174.682 289.646 175.739 289.207 176.842 289.206H207.995C210.605 289.206 213.108 290.243 214.954 292.09C216.799 293.936 217.836 296.441 217.836 299.053C217.836 301.664 216.799 304.169 214.954 306.016C213.108 307.862 210.605 308.9 207.995 308.9Z" fill="#3F3D56"/>
<path d="M206.889 317.977C205.891 317.976 204.935 317.579 204.23 316.873C203.524 316.167 203.127 315.21 203.126 314.212V303.786H210.652V314.212C210.651 315.21 210.254 316.167 209.549 316.873C208.843 317.579 207.887 317.976 206.889 317.977Z" fill="#3F3D56"/>
<path d="M185.052 317.977C184.054 317.976 183.098 317.579 182.392 316.873C181.687 316.167 181.29 315.21 181.289 314.212V303.786H188.815V314.212C188.814 315.21 188.417 316.167 187.711 316.873C187.006 317.579 186.05 317.976 185.052 317.977V317.977Z" fill="#3F3D56"/>
<path d="M179.842 275.091H170.58V262.927C170.58 261.698 171.068 260.519 171.936 259.65C172.805 258.781 173.982 258.293 175.211 258.293C176.439 258.293 177.617 258.781 178.485 259.65C179.354 260.519 179.842 261.698 179.842 262.927V275.091Z" fill="#6C63FF"/>
<path d="M179.108 292.324H163.789C162.903 292.323 162.054 291.97 161.428 291.344C160.802 290.718 160.45 289.868 160.449 288.983V280.954C160.452 278.133 161.574 275.428 163.567 273.433C165.561 271.438 168.264 270.316 171.084 270.313H173.528C175.892 270.316 178.159 271.257 179.832 272.93C181.504 274.603 182.444 276.872 182.447 279.238V288.983C182.446 289.868 182.094 290.718 181.468 291.344C180.842 291.97 179.993 292.323 179.108 292.324V292.324Z" fill="#3F3D56"/>
<path d="M179.842 275.091H173.474V261.479C173.474 260.634 173.81 259.824 174.407 259.226C175.004 258.629 175.814 258.293 176.658 258.293C177.502 258.293 178.312 258.629 178.909 259.226C179.506 259.824 179.842 260.634 179.842 261.479V275.091Z" fill="#3F3D56"/>
<path d="M178.255 292.224H161.467C160.239 292.224 159.061 291.736 158.192 290.867C157.324 289.998 156.836 288.819 156.836 287.59C156.836 286.361 157.324 285.183 158.192 284.314C159.061 283.445 160.239 282.956 161.467 282.956H178.255V292.224Z" fill="#3F3D56"/>
<path d="M157.27 289.462C157.869 289.462 158.355 288.586 158.355 287.507C158.355 286.427 157.869 285.552 157.27 285.552C156.67 285.552 156.184 286.427 156.184 287.507C156.184 288.586 156.67 289.462 157.27 289.462Z" fill="#6C63FF"/>
<path d="M364.931 318H144.374C144.22 318 144.073 317.939 143.964 317.83C143.856 317.722 143.795 317.574 143.795 317.421C143.795 317.267 143.856 317.12 143.964 317.011C144.073 316.903 144.22 316.842 144.374 316.842H364.931C365.085 316.842 365.232 316.903 365.341 317.011C365.449 317.12 365.51 317.267 365.51 317.421C365.51 317.574 365.449 317.722 365.341 317.83C365.232 317.939 365.085 318 364.931 318Z" fill="#3F3D56"/>
</svg>
