<svg width="48" height="40" viewBox="0 0 48 40" fill="none" xmlns="http://www.w3.org/2000/svg">
<path fill-rule="evenodd" clip-rule="evenodd" d="M6.10858 16.0783C5.60392 15.5036 5.36181 14.7166 5.15692 13.9712C4.94415 13.1968 4.73947 12.4151 4.61817 11.6161C4.37579 10.0195 4.49912 8.21156 5.70713 7.06928C6.67594 6.1533 8.05745 5.80853 9.31076 5.80011C10.1458 5.79444 10.9906 5.97017 11.7685 6.28721C12.5402 6.60172 13.1849 7.16621 13.9282 7.54052C14.0761 5.84858 14.4908 4.09636 15.4524 2.70998C16.3777 1.37606 17.7522 0.687201 19.2697 0.585474C20.8272 0.481091 22.3253 0.948041 23.6541 1.79053C23.9868 2.00152 24.3156 2.22118 24.6279 2.46562C24.8894 2.67031 25.1591 2.91366 25.4759 3.01159C25.829 3.12086 26.0215 2.92611 26.2732 2.68071C26.5683 2.39298 26.8954 2.14425 27.2384 1.92744C28.7549 0.968959 30.6778 0.665538 32.3043 1.41699C33.0537 1.76321 33.7675 2.31219 34.2419 3.03314C34.6647 3.67579 34.929 4.66686 35.5418 5.13681C35.8018 5.3363 36.0112 5.11065 36.2718 4.95127C36.6634 4.71178 37.0396 4.44362 37.4351 4.21168C37.9908 3.88581 38.5838 3.65444 39.2085 3.55526C40.1229 3.41006 41.3631 3.54559 41.5379 4.74103C41.6035 5.19006 41.4963 5.65791 41.4339 6.10136C41.3482 6.71027 41.2606 7.31885 41.1646 7.92614C41.0917 8.38723 41.0093 8.83173 40.8897 9.28119C40.826 9.52077 40.6479 9.96328 40.7351 10.2137C40.8441 10.5268 41.4574 10.3959 41.7135 10.4244C42.2194 10.4808 42.7226 10.6052 43.1765 10.8545C43.5283 11.0477 43.8932 11.3213 44.0174 11.7483C44.0938 12.0105 44.0506 12.2715 43.9876 12.5314C43.912 12.8434 43.9614 13.0151 43.979 13.3365C44.6838 13.0489 47.0972 12.4689 47.3088 13.7095C47.3792 14.1226 47.1218 14.5659 46.926 14.8965C46.5824 15.4763 46.1488 15.9979 45.7081 16.4934C44.7889 17.5272 43.7169 18.3994 42.578 19.1297C43.8067 19.7815 44.0213 21.4659 42.854 22.379C42.3386 22.7822 41.68 22.834 41.0704 22.7634C40.8473 22.7375 40.5307 22.6291 40.3519 22.6557C40.2556 22.67 40.1485 22.7432 40.0166 22.743C39.1495 22.7418 38.1898 22.4661 37.3596 22.216C35.8803 21.7702 34.507 20.9594 33.4208 19.7947C33.1422 19.4959 32.9071 19.3187 32.5055 19.2948C32.1537 19.2738 31.8019 19.3461 31.45 19.3304C30.5188 19.2893 29.7126 18.7768 28.8706 18.4145C28.7361 19.5757 28.3142 20.8355 27.7637 21.8502C27.3149 22.6777 26.4939 22.7452 25.6905 22.7644C23.1213 22.8263 20.5787 22.3798 18.0229 22.205C20.4576 22.9363 22.9978 23.3449 25.4037 24.1734C26.4912 24.5478 25.5926 25.235 25.0824 25.7193C24.2424 26.5167 23.5882 27.5317 23.1079 28.6156C22.0081 26.9552 19.9418 25.7675 18.0128 26.1194C15.8814 26.5082 14.2088 29.2342 15.4052 31.3614C16.0999 32.5962 17.4717 33.15 18.6042 33.7387C17.6267 34.6216 17.3083 36.0041 16.6774 37.1433C16.3662 37.7051 15.9405 38.3352 15.3214 38.4953C15.0923 38.5546 14.8294 38.5427 14.6401 38.7126C14.4055 38.923 14.3358 39.1717 14.0429 39.3462C12.8741 40.0425 11.1372 39.8614 10.2201 38.7822C9.39073 37.8062 9.72449 36.3767 10.5355 35.5024C9.38248 34.925 7.26321 34.1379 7.86477 32.3222C5.30312 31.9719 -0.653338 27.366 3.01437 24.56C1.1937 23.3574 -0.364585 20.6201 1.01464 18.3992C2.07668 16.6891 4.31288 16.0476 6.10858 16.0783Z" fill="#D76642"/>
</svg>
