<svg width="277" height="68" viewBox="0 0 277 68" fill="none" xmlns="http://www.w3.org/2000/svg">
<path d="M232.579 0.5V67.5H196.159C192.569 67.5 189.659 64.5899 189.659 61V7C189.659 3.41015 192.569 0.5 196.159 0.5H232.579ZM233.579 0.5H270C273.59 0.5 276.5 3.41015 276.5 7V61C276.5 64.5899 273.59 67.5 270 67.5H233.579V0.5ZM101.33 0.5H131.25C134.84 0.5 137.75 3.41015 137.75 7V61C137.75 64.5899 134.84 67.5 131.25 67.5H101.33C97.7399 67.5 94.8297 64.5899 94.8297 61V7C94.8297 3.41015 97.7399 0.5 101.33 0.5ZM7 0.5H36.9207C40.5106 0.5 43.4207 3.41015 43.4207 7V61C43.4207 64.5899 40.5106 67.5 36.9207 67.5H6.99999C3.41014 67.5 0.5 64.5899 0.5 61V7C0.5 3.41015 3.41015 0.5 7 0.5Z" fill="white" stroke="#C4C4C4"/>
</svg>
