<svg width="218" height="382" viewBox="0 0 218 382" fill="none" xmlns="http://www.w3.org/2000/svg">
<path fill-rule="evenodd" clip-rule="evenodd" d="M103.434 63.9522C99.8009 59.1805 97.342 53.3327 97.7529 46.7801C98.9368 27.9003 122.424 32.0536 126.993 41.5825C131.562 51.1115 131.019 75.2824 125.114 76.9855C122.76 77.6647 117.743 76.0009 112.637 72.5575L115.842 97.9263H96.9197L103.434 63.9522Z" fill="#B28B67"/>
<path fill-rule="evenodd" clip-rule="evenodd" d="M115.583 30.6159C113.104 30.1581 106.429 29.8433 105.197 29.8435C104.411 29.8435 103.558 30.0459 103.092 29.2324C102.711 28.5662 102.85 27.4396 102.737 26.6665C102.604 25.7685 102.416 24.882 102.226 23.9978C101.686 21.4817 100.868 19.0879 99.7245 16.8404C97.5782 12.624 94.434 9.32118 90.4646 7.3993C86.0812 5.27724 81.121 4.79133 76.406 5.22176C71.3603 5.68226 66.7929 7.55802 62.029 9.32321C57.4892 11.0053 52.7343 11.6674 47.9862 10.846C43.2023 10.0184 39.5876 7.09853 35.5525 4.32717C31.4217 1.48997 26.701 -0.365662 21.8176 0.0609035C17.2591 0.459221 13.0578 2.57884 9.28839 5.41035C5.76169 8.05957 2.8517 11.2469 1.2088 15.7329C-0.558599 20.5584 -0.556975 25.8552 2.34941 30.1199C6.56209 36.3015 14.3828 37.9001 20.8893 37.7412C24.6527 37.6495 28.3489 36.8758 31.9021 35.4685C36.6406 33.5915 40.7354 30.4103 45.1685 27.8291C47.2489 26.6179 49.3994 25.6231 51.6534 24.9066C53.8407 24.211 55.9951 23.8919 57.9755 25.3799C60.0705 26.9541 61.9478 28.5004 64.3445 29.4858C66.6437 30.4312 69.0791 30.96 71.5287 30.9387C76.2948 30.8972 80.993 29.2249 85.622 28.1047C89.3968 27.1914 93.4357 26.2812 97.2841 27.1591C98.8899 27.5255 101.236 28.2819 101.816 30.1613C92.0537 32.1537 88.2197 45.7494 90.9717 55.7299C92.457 61.1167 101.385 67.4139 104.857 64.5819C107.056 62.7878 105.721 60.4325 104.857 58.8776C103.202 55.9 102.636 52.0751 105.698 50.002C108.339 48.2141 111.116 52.46 111.169 52.4553C111.895 52.3909 118.167 48.396 122.489 42.5664C126.752 42.851 127.399 39.6853 126.381 37.0963C125.363 34.5073 119.009 31.249 115.583 30.6159Z" fill="#191847"/>
<path fill-rule="evenodd" clip-rule="evenodd" d="M81.4613 171.15C82.8785 192.861 174.177 256.781 174.71 258.575C174.946 259.372 165.474 284.568 146.292 334.164L154.273 337.645C183.694 285.12 197.65 256.058 196.138 250.461C193.975 242.448 170.362 216.088 125.301 171.381L81.4613 171.15Z" fill="#B28B67"/>
<path fill-rule="evenodd" clip-rule="evenodd" d="M148.392 322.964L161.422 328.288C188.898 293.491 199.667 264.78 197.704 250.152C196.395 240.4 172.864 214.083 127.111 171.203L80.5269 171.203C82.1164 221.483 166.739 258.766 167.87 260.909C169.002 263.051 157.863 284.036 148.392 322.964Z" fill="#2F3676"/>
<path fill-rule="evenodd" clip-rule="evenodd" d="M143.356 332.454C141.726 334.593 140.713 336.276 140.314 337.506C139.829 339.001 139.344 341.273 138.857 344.322C140.403 344.953 154.288 350.626 180.514 361.34C182.899 357.766 182.978 355.342 180.749 354.069C178.521 352.796 176.677 351.715 175.218 350.826L158.998 333.228C158.686 332.889 158.188 332.899 157.887 333.249C157.882 333.255 157.877 333.261 157.872 333.267L155.528 336.148C153.002 336.396 151.065 336.245 149.715 335.693C148.618 335.245 147.265 334.129 145.654 332.345L145.654 332.345C145.037 331.661 144.041 331.668 143.431 332.362C143.405 332.392 143.38 332.423 143.356 332.454Z" fill="#E4E4E4"/>
<path fill-rule="evenodd" clip-rule="evenodd" d="M91.7028 171.15L51.1572 280.626L11.3073 373.178H20.7091L123.573 171.15H91.7028Z" fill="#997659"/>
<path fill-rule="evenodd" clip-rule="evenodd" d="M11.0003 368.914C10.1279 371.591 9.69171 373.595 9.69171 374.924C9.69171 376.54 9.92598 378.899 10.3945 382C12.0258 382 26.6868 382 54.3774 382C55.5204 377.657 54.8606 375.312 52.3981 374.965C49.9356 374.619 47.8899 374.306 46.2611 374.027L25.8183 363.551C25.4249 363.35 24.9639 363.553 24.7885 364.005C24.7855 364.013 24.7826 364.021 24.7798 364.028L23.4657 367.692C21.1861 368.915 19.3336 369.526 17.9084 369.526C16.7504 369.526 15.1512 368.989 13.1108 367.914L13.1108 367.914C12.3278 367.501 11.402 367.896 11.0431 368.796C11.0276 368.835 11.0134 368.874 11.0003 368.914Z" fill="#E4E4E4"/>
<path fill-rule="evenodd" clip-rule="evenodd" d="M14.5379 353.778L35.6186 358.18C51.918 331.496 120.132 222.084 127.611 171.15H80.6808C55.7046 207.97 30.0747 326.653 14.5379 353.778Z" fill="#5C63AB"/>
<path fill-rule="evenodd" clip-rule="evenodd" d="M163.027 146.993L191.523 132.954C196.515 127.374 201.335 123.133 205.984 120.23C207.374 119.734 209.749 119.584 207.215 123.736C204.681 127.887 202.183 132.382 203.195 133.837C204.207 135.292 207.14 133.686 208.299 136.052C209.071 137.63 204.128 139.517 193.468 141.713L172.126 160.069L163.027 146.993ZM47.8195 150.859L63.935 154.446C47.7281 188.328 39.0366 206.285 37.8606 208.318C35.2145 212.892 37.6833 221.275 38.5953 225.69C32.874 227.184 35.1303 217.524 27.8902 219.541C21.2817 221.382 15.6785 226.106 9.51633 219.735C8.75873 218.951 8.20413 216.503 10.7872 215.247C17.2225 212.118 26.7301 206.259 28.2717 203.985C30.3741 200.883 36.89 183.174 47.8195 150.859Z" fill="#B28B67"/>
<path fill-rule="evenodd" clip-rule="evenodd" d="M107.439 83.2214L114.235 81.9129C129.038 98.0311 135.079 136.755 144.944 141.88C154.272 146.727 167.494 142.037 183.21 135.705L188.023 147.775C173.743 165.116 143.322 179.767 130.99 171.403C111.275 158.031 106.724 110.272 107.439 83.2214Z" fill="#1F28CF"/>
<path fill-rule="evenodd" clip-rule="evenodd" d="M77.5357 179.09C104.744 179.09 124.758 179.09 137.577 179.09C140.321 179.09 139.804 174.636 139.407 172.389C134.83 146.451 116.962 118.492 116.962 81.5703L99.6432 78.5172C85.3183 104.418 80.3645 136.306 77.5357 179.09Z" fill="#DDE3E9"/>
<path fill-rule="evenodd" clip-rule="evenodd" d="M71.8597 152.829C59.58 177.65 49.2583 195.52 40.8944 206.439L28.2682 203.668C36.4015 147.146 59.9542 105.429 98.9264 78.5172H102.062L105.806 78.5172C121.404 138.099 125.704 177.799 118.707 197.617H64.4838C65.3416 183.116 68.0923 167.781 71.8597 152.829H71.8597Z" fill="#7B61FF"/>
</svg>
