<svg width="33" height="34" viewBox="0 0 33 34" fill="none" xmlns="http://www.w3.org/2000/svg">
<path fill-rule="evenodd" clip-rule="evenodd" d="M15.5014 0.908087L10.3582 2.19044C3.52471 3.89422 -0.633731 10.815 1.07004 17.6485L2.61252 23.835C4.3163 30.6685 11.2371 34.827 18.0706 33.1232L23.2138 31.8408C30.0473 30.137 34.2057 23.2162 32.502 16.3828L30.9595 10.1962C29.2557 3.36275 22.3349 -0.795689 15.5014 0.908087ZM20.8295 6.99866C22.5379 6.57272 24.2681 7.61233 24.694 9.32069L27.3809 20.0973C27.8069 21.8056 26.7673 23.5358 25.0589 23.9618L12.7425 27.0326C11.0341 27.4585 9.3039 26.4189 8.87796 24.7106L6.19106 13.934C5.76512 12.2256 6.80473 10.4954 8.51309 10.0695L20.8295 6.99866Z" fill="#C5CFD6"/>
</svg>
