<svg width="18" height="42" viewBox="0 0 18 42" fill="none" xmlns="http://www.w3.org/2000/svg">
<path fill-rule="evenodd" clip-rule="evenodd" d="M10.611 1.41111C8.41277 1.00219 6.80182 0.887816 5.77816 1.068C4.53314 1.28714 2.75297 1.81419 0.437633 2.64914C0.692571 4.09242 2.98374 17.0634 7.31114 41.5622C10.8352 41.9845 12.5381 41.0829 12.42 38.8573C12.3019 36.6316 12.2231 34.7794 12.1835 33.3005L17.0575 13.7939C17.1513 13.4185 16.9228 13.0382 16.5471 12.9443C16.5407 12.9427 16.5342 12.9412 16.5278 12.9398L13.5003 12.274C12.2023 10.4228 11.442 8.86678 11.2192 7.60581C11.0383 6.58131 11.2024 5.09357 11.7117 3.14261L11.7117 3.14261C11.9071 2.39392 11.4581 1.62847 10.7087 1.43292C10.6764 1.42449 10.6438 1.41722 10.611 1.41111Z" fill="#F0DA67"/>
</svg>
