<svg width="31" height="64" viewBox="0 0 31 64" fill="none" xmlns="http://www.w3.org/2000/svg">
<path fill-rule="evenodd" clip-rule="evenodd" d="M17.6611 0.86861C20.7793 1.20646 22.9929 1.73744 24.3017 2.46155C25.8936 3.34224 28.0872 4.92831 30.8824 7.21978C29.9814 9.31533 21.8834 28.1484 6.58863 63.7191C1.67987 62.8209 -0.264962 60.6958 0.754138 57.3438C1.77324 53.9918 2.5952 51.1936 3.22001 48.9492L4.19479 16.9813C4.21355 16.3662 4.66826 15.8846 5.21041 15.9057C5.21969 15.9061 5.22896 15.9066 5.23822 15.9072L9.57243 16.2155C12.0356 13.9533 13.6609 11.9067 14.4481 10.0759C15.0877 8.58837 15.4416 6.2412 15.5098 3.03437L15.5098 3.03437C15.5359 1.80374 16.4364 0.829857 17.5211 0.859148C17.5678 0.860411 17.6145 0.863567 17.6611 0.86861Z" fill="#FFD037"/>
</svg>
