<svg width="47" height="18" viewBox="0 0 47 18" fill="none" xmlns="http://www.w3.org/2000/svg">
<path fill-rule="evenodd" clip-rule="evenodd" d="M44.8881 5.50684C45.7798 7.88705 46.2256 9.66799 46.2256 10.8497C46.2256 12.2869 45.9862 14.3841 45.5073 17.1414C43.84 17.1414 28.8561 17.1414 0.555479 17.1414C-0.61266 13.2796 0.0616566 11.1947 2.57843 10.8868C5.0952 10.5789 7.18593 10.3008 8.85061 10.0527L29.7438 0.738402C30.1458 0.559177 30.617 0.739791 30.7962 1.14182C30.7993 1.14869 30.8023 1.15562 30.8051 1.16258L32.1481 4.42036C34.478 5.50742 36.3713 6.05095 37.8279 6.05095C39.0114 6.05095 40.6458 5.57298 42.7312 4.61702L42.7312 4.61701C43.5314 4.25016 44.4776 4.60151 44.8444 5.40177C44.8602 5.43626 44.8748 5.47131 44.8881 5.50684Z" fill="#E4E4E4"/>
</svg>
