<svg width="42" height="15" viewBox="0 0 42 15" fill="none" xmlns="http://www.w3.org/2000/svg">
<path fill-rule="evenodd" clip-rule="evenodd" d="M1.75684 4.26669C0.972252 6.35879 0.579956 7.92417 0.579956 8.96282C0.579956 10.2261 0.790639 12.0695 1.21201 14.493C2.6791 14.493 15.8641 14.493 40.7671 14.493C41.795 11.0986 41.2016 9.26608 38.987 8.99543C36.7724 8.72478 34.9327 8.4804 33.4678 8.26229L15.083 0.0754243C14.7293 -0.0821074 14.3146 0.0766458 14.1569 0.43001C14.1542 0.436055 14.1516 0.442139 14.1491 0.448258L12.9673 3.31171C10.9172 4.2672 9.2512 4.74494 7.96942 4.74494C6.92801 4.74494 5.48981 4.32482 3.65483 3.48457L3.65483 3.48456C2.95065 3.16212 2.11811 3.47094 1.7953 4.17433C1.78138 4.20465 1.76856 4.23545 1.75684 4.26669Z" fill="#F0DA67"/>
</svg>
