<svg width="57" height="24" viewBox="0 0 57 24" fill="none" xmlns="http://www.w3.org/2000/svg">
<path fill-rule="evenodd" clip-rule="evenodd" d="M55.3304 7.50212C56.4295 10.8304 56.979 13.3208 56.979 14.9732C56.979 16.9828 56.6839 19.9155 56.0936 23.7711C54.0385 23.7711 35.5688 23.7711 0.684619 23.7711C-0.755264 18.371 0.0759191 15.4556 3.17817 15.025C6.28042 14.5945 8.85752 14.2057 10.9095 13.8587L36.663 0.834273C37.1586 0.583657 37.7394 0.836215 37.9603 1.39838C37.9641 1.408 37.9677 1.41768 37.9713 1.42741L39.6267 5.98286C42.4986 7.50293 44.8323 8.26297 46.6278 8.26297C48.0866 8.26297 50.1012 7.5946 52.6717 6.25786L52.6717 6.25785C53.6581 5.74487 54.8244 6.23617 55.2765 7.3552C55.296 7.40343 55.314 7.45243 55.3304 7.50212Z" fill="#FFD037"/>
</svg>
