<svg width="179" height="61" viewBox="0 0 179 61" fill="none" xmlns="http://www.w3.org/2000/svg">
<path fill-rule="evenodd" clip-rule="evenodd" d="M144.313 25.1503L163.486 45.1944C169.176 47.8574 173.814 50.7407 177.399 53.8443C178.194 54.8733 179.03 56.8211 175.156 55.828C171.282 54.8349 167.163 53.9644 166.385 55.2076C165.606 56.4509 167.7 58.4701 166.286 60.0834C165.343 61.159 162.426 57.5324 157.536 49.2038L137.318 36.3234L144.313 25.1503ZM45.8129 0.868303L57.5865 5.21007C38.5262 30.7192 28.3514 44.1899 27.0621 45.622C24.1612 48.8443 25.292 55.7691 25.5455 59.3617C20.3192 59.7376 23.5101 52.4685 16.8805 53.0435C10.8294 53.5682 5.30461 56.4967 0.669609 50.6364C0.0997633 49.9159 -0.0838241 47.9164 2.34819 47.2903C8.40723 45.7304 17.5129 42.4554 19.1544 40.8845C21.3928 38.7423 30.279 25.4036 45.8129 0.868303Z" fill="#915B3C"/>
</svg>
