<svg width="73" height="115" viewBox="0 0 73 115" fill="none" xmlns="http://www.w3.org/2000/svg">
<path fill-rule="evenodd" clip-rule="evenodd" d="M20.5513 4.21769C14.829 -3.54316 0.525236 1.59442 0.53385 8.0192C0.55648 24.888 15.9503 104.971 16.7541 110.027C17.5578 115.083 26.1678 116.737 26.6692 110.419C27.467 100.367 28.9492 65.5199 27.4662 49.3083C27.033 44.5729 26.5762 39.9958 26.1162 35.7077C34.2066 50.242 46.5091 70.785 63.0235 97.3367L72.2021 93.1433C64.9945 69.396 59.0843 52.6311 54.4716 42.8485C46.5735 26.0983 39.1678 11.754 36.051 6.70134C31.9339 0.0271345 25.2561 0.913144 20.5513 4.21769Z" fill="#B28B67"/>
</svg>
