<svg width="248" height="98" viewBox="0 0 248 98" fill="none" xmlns="http://www.w3.org/2000/svg">
<path fill-rule="evenodd" clip-rule="evenodd" d="M54.2779 10.9417L22.9411 37.0463C14.4419 39.648 7.34116 42.8849 1.63875 46.7571C0.291747 48.1495 -1.33625 50.9694 4.25011 50.482C9.83648 49.9947 15.7318 49.7671 16.5026 51.9286C17.2734 54.0902 13.8929 56.6752 15.451 59.5917C16.4898 61.536 21.3973 56.6607 30.1736 44.9656L61.2052 30.3677L54.2779 10.9417ZM196.087 0.0685764L178.786 3.62234C198.866 48.8258 209.621 72.7266 211.051 75.3248C214.268 81.1708 211.021 91.7038 209.795 97.2601C216.914 99.2897 214.283 87.0261 223.289 89.7541C231.51 92.2441 238.418 98.3533 246.241 90.4534C247.203 89.4822 247.943 86.4015 244.741 84.7505C236.761 80.6372 224.997 72.9981 223.115 70.0855C220.549 66.1136 211.54 42.7746 196.087 0.0685764Z" fill="#B28B67"/>
</svg>
