<svg width="169" height="72" viewBox="0 0 169 72" fill="none" xmlns="http://www.w3.org/2000/svg">
<path fill-rule="evenodd" clip-rule="evenodd" d="M44.1067 0.603233L18.684 19.2717C11.7889 21.1322 6.02817 23.4471 1.40197 26.2162C0.309181 27.212 -1.01156 29.2286 3.5205 28.8801C8.05256 28.5315 12.8353 28.3688 13.4606 29.9146C14.086 31.4604 11.3434 33.309 12.6075 35.3947C13.4502 36.7852 17.4315 33.2987 24.5515 24.9351L49.7266 14.4956L44.1067 0.603233ZM141.717 1.24752L125.062 1.31302C135.346 34.5107 140.897 52.1252 141.717 54.1564C143.561 58.7268 139.659 65.6874 137.99 69.428C143.425 71.8602 142.846 62.8527 149.703 66.0427C155.961 68.9544 160.722 74.2302 167.953 69.7685C168.842 69.22 169.816 67.1547 167.463 65.5407C161.598 61.5198 153.148 54.4825 152.006 52.1661C150.449 49.0072 147.019 32.0344 141.717 1.24752Z" fill="#B28B67"/>
</svg>
