<svg width="163" height="147" viewBox="0 0 163 147" fill="none" xmlns="http://www.w3.org/2000/svg">
<path fill-rule="evenodd" clip-rule="evenodd" d="M12.602 146.362C25.1892 114.758 34.2922 87.238 37.9461 72.7186C44.2025 47.8579 48.9619 25.9819 50.1649 17.8123C53.0334 -1.66904 28.0983 -2.80348 24.8024 6.87841C19.8139 21.5323 11.1052 69.679 0.640949 142.403L12.602 146.362ZM158.607 47.1791C147.058 42.0006 106.615 25.7942 87.109 21.2097C81.5038 19.8923 76.0711 18.6683 70.9634 17.5621C55.7816 14.2742 47.9159 45.3446 62.5379 47.7319C98.9525 53.6773 150.576 59.8168 154.994 60.5058C161.186 61.4715 165.865 50.4337 158.607 47.1791Z" fill="#B28B67"/>
</svg>
