<svg width="66" height="105" viewBox="0 0 66 105" fill="none" xmlns="http://www.w3.org/2000/svg">
<path opacity="0.1" d="M53.9916 98.7052C52.7965 97.5804 51.7347 96.2797 50.1982 95.5388C48.2347 94.5899 45.8605 94.7178 43.6197 94.6325C40.827 94.5304 38.0603 94.0571 35.3926 93.2252C34.6167 93.0332 33.8897 92.6809 33.2585 92.191C31.9887 91.0715 32.0794 89.2697 32.1914 87.6864C32.468 84.043 32.4537 80.3834 32.1487 76.7423C31.93 74.1728 31.2417 71.1822 28.6007 70.0841C27.2509 69.519 25.6343 69.5883 24.3325 68.9486C21.8995 67.7438 21.6648 64.7799 21.7662 62.317C21.8764 59.2003 21.9849 56.0853 22.0916 52.9721C22.1823 50.4186 22.2517 47.7746 21.1473 45.4183C19.9362 42.8329 17.3592 40.6899 17.0977 37.8965C16.879 35.567 18.3516 33.3867 18.8691 31.0891C19.9041 26.4672 16.4255 21.4083 11.3089 20.0809C9.70832 19.6651 7.99033 19.5798 6.39506 19.1107C4.7998 18.6416 3.25254 17.6287 2.92175 16.1788C2.59096 14.7288 3.53534 13.3214 4.74646 12.3459C5.95758 11.3704 7.44611 10.6987 8.71592 9.77643C10.5502 8.47864 11.8924 6.60036 12.5254 4.4456C12.8828 3.15554 13.0589 1.66825 14.206 0.836641C14.8636 0.429232 15.6198 0.208109 16.3935 0.196936C15.9186 0.196936 15.4438 0.170288 14.9743 0.170288C13.8592 0.170288 12.6641 0.228927 11.7731 0.836641C10.594 1.66825 10.4446 3.15554 10.0924 4.4456C9.45543 6.59983 8.11184 8.47742 6.2777 9.77643C5.01323 10.6987 3.52464 11.3757 2.31352 12.3459C1.1024 13.3161 0.179388 14.7554 0.483502 16.1788C0.787616 17.6021 2.36689 18.6363 3.96215 19.1107C5.55742 19.5852 7.26473 19.6438 8.87601 20.0809C13.9926 21.4083 17.4659 26.4779 16.4308 31.0891C15.8973 33.3867 14.4407 35.567 14.6648 37.8965C14.9263 40.6899 17.5032 42.8329 18.7144 45.4183C19.8188 47.7746 19.7494 50.4186 19.6587 52.9721C19.5484 56.0853 19.44 59.2003 19.3332 62.317C19.2479 64.7799 19.4613 67.7438 21.8942 68.9486C23.196 69.5883 24.818 69.519 26.1625 70.0841C28.7981 71.1822 29.4917 74.1728 29.7051 76.7423C30.0101 80.3834 30.0244 84.043 29.7478 87.6864C29.6251 89.2857 29.5398 91.0715 30.8149 92.191C31.4461 92.6809 32.1731 93.0332 32.949 93.2252C35.6166 94.0576 38.3833 94.5309 41.1761 94.6325C43.417 94.7178 45.7859 94.5899 47.7546 95.5388C49.2858 96.2797 50.3529 97.5804 51.548 98.7052C54.9566 101.825 59.3039 103.728 63.91 104.116C64.5057 104.187 65.1089 104.163 65.6973 104.047C61.3296 103.543 57.2328 101.673 53.9916 98.7052V98.7052Z" fill="black"/>
</svg>
