<svg width="102" height="65" viewBox="0 0 102 65" fill="none" xmlns="http://www.w3.org/2000/svg">
<path d="M23.1727 0.923739C20.0942 0.172092 11.6057 -0.520886 7.56683 13.0141C6.62652 16.1579 5.42917 19.2192 3.98684 22.1671C0.113383 30.1154 -4.89117 46.4597 17.1171 50.058L69.9369 62.0523C69.9369 62.0523 98.2142 65.5174 100.082 64.1847C101.949 62.8519 101.682 59.92 101.682 59.92C101.682 59.92 70.4705 59.92 64.3348 50.3245C58.1992 40.729 57.9324 27.6685 57.9324 27.6685C57.9324 27.6685 58.7007 7.502 26.4539 1.64342C25.3869 1.44085 24.2664 1.19028 23.1727 0.923739Z" fill="#474157"/>
</svg>
