<svg width="2" height="176" viewBox="0 0 2 176" fill="none" xmlns="http://www.w3.org/2000/svg">
<path d="M0.623047 175.444C0.568401 175.444 0.514294 175.433 0.4638 175.413C0.413306 175.392 0.367411 175.361 0.328757 175.322C0.290103 175.284 0.259445 175.238 0.238516 175.187C0.217588 175.137 0.206804 175.083 0.206787 175.028V0.510894C0.207198 0.400698 0.251231 0.295162 0.329252 0.217387C0.407272 0.139612 0.512915 0.0959473 0.623047 0.0959473C0.733179 0.0959473 0.838822 0.139612 0.916842 0.217387C0.994862 0.295162 1.0389 0.400698 1.03931 0.510894V175.028C1.03929 175.083 1.02851 175.137 1.00758 175.187C0.986648 175.238 0.955991 175.284 0.917337 175.322C0.878682 175.361 0.832788 175.392 0.782293 175.413C0.731799 175.433 0.677693 175.444 0.623047 175.444V175.444Z" fill="#3F3D56"/>
</svg>
