<svg width="51" height="45" viewBox="0 0 51 45" fill="none" xmlns="http://www.w3.org/2000/svg">
<path d="M50.1121 22.3158V29.7789L42.3758 32.3004L29.1975 41.9918L25.7029 44.5613L10.0971 38.2976L0.226685 27.9025C0.226685 27.9025 0.706876 27.6413 1.53919 27.2095L2.07272 26.9269C3.74268 26.09 6.37301 24.7946 9.28076 23.6378C12.1885 22.481 12.53 15.7002 12.3646 10.1135V9.58042C12.2312 5.66226 11.831 2.45843 11.831 2.45843C11.831 2.45843 13.4583 2.14924 15.8272 1.79741C22.395 0.821868 34.6503 -0.494851 33.5725 3.52459C33.2579 4.89098 33.2579 6.31092 33.5725 7.67731C33.6045 7.82657 33.6366 7.98117 33.6739 8.13043C34.7836 12.9762 38.2196 18.0511 38.2196 18.0511L48.8903 21.8893L49.1891 21.9959L50.1121 22.3158Z" fill="#FDC2CC"/>
</svg>
