<svg width="135" height="276" viewBox="0 0 135 276" fill="none" xmlns="http://www.w3.org/2000/svg">
<path d="M134.897 123.414C134.79 122.762 134.587 122.129 134.294 121.537C134.699 120.156 134.961 119.309 134.961 119.309C134.961 119.309 134.961 119.106 134.897 118.776C134.579 116.822 133.563 115.05 132.038 113.788C130.512 112.525 128.58 111.858 126.6 111.91C123.399 111.968 117.328 112.181 110.594 112.938C110.979 110.246 111.437 107.027 111.918 103.711L112.798 103.807C113.001 103.807 113.214 103.807 113.427 103.839H113.71C114.412 103.883 115.106 103.67 115.663 103.242C115.799 103.109 115.901 102.945 115.958 102.763C116.016 102.582 116.027 102.389 115.992 102.202C115.956 102.015 115.875 101.84 115.755 101.692C115.636 101.544 115.481 101.428 115.305 101.355C116.092 101.433 116.886 101.314 117.616 101.009C118.345 100.703 118.987 100.221 119.483 99.606C119.936 98.973 120.179 98.2144 120.179 97.4364C120.179 96.6584 119.936 95.8998 119.483 95.2668C118.357 93.6675 115.972 92.6013 115.844 90.7196C115.775 89.6534 116.49 88.6938 117.05 87.7503C118.4 85.3948 118.94 82.6618 118.586 79.9705C118.233 77.2792 117.005 74.778 115.092 72.8506C114.341 72.1064 113.55 71.4035 112.723 70.745C111.549 66.4377 110.322 62.5888 109.96 62.4662C109.49 62.3116 108.684 61.2987 107.916 60.4298C107.986 59.6969 107.974 58.9583 107.879 58.2282C107.313 54.4966 103.61 51.8312 101.572 48.5367C99.5343 45.2423 99.1661 41.2069 99.689 37.4326C100.212 33.6584 101.53 30.0068 102.602 26.3232C103.402 23.5885 104.069 20.6832 103.173 17.9698C102.538 16.0347 101.156 14.3608 99.7317 12.7882C96.3117 9.00867 92.3689 5.46901 87.5031 3.19274C84.1208 1.59971 80.4163 0.807985 76.6777 0.879167H76.6404L76.0535 0.911151L75.6373 0.937815L75.2212 0.980454L74.7783 1.02311C74.3248 1.08175 73.8766 1.15104 73.4285 1.24166C70.1786 0.519751 66.8606 0.14803 63.5314 0.132855H63.0993C62.1118 0.0745171 61.1289 0.306152 60.2716 0.799208C59.0871 1.62549 58.9377 3.10746 58.5803 4.39752C57.9382 6.5565 56.5844 8.43516 54.7388 9.72834C53.4637 10.6452 51.9644 11.3276 50.748 12.2871C49.5315 13.2467 48.5819 14.686 48.9073 16.104C49.1794 17.2928 50.2892 18.1777 51.575 18.7161C51.4203 18.908 51.2602 19.0946 51.1108 19.2918C51.3616 19.3931 51.6443 19.4838 51.8738 19.5584C53.4744 20.0328 55.1976 20.0915 56.8196 20.5233C57.2661 20.6426 57.7045 20.7904 58.1321 20.9657C56.6894 23.6771 55.9363 26.7015 55.9393 29.7722C55.9454 33.1823 56.8713 36.5277 58.6195 39.4565C60.3677 42.3852 62.8736 44.7891 65.8737 46.4151C65.8737 46.5963 65.8737 46.7722 65.8737 46.9482C66.0391 52.5135 65.6176 59.2837 62.7685 60.4298C59.9194 61.5759 57.1931 62.8713 55.5125 63.7083L54.9789 63.9908C54.5361 63.7882 54.0932 63.575 53.6611 63.3511C53.6611 63.3511 51.3936 63.0846 51.7884 64.8117C51.7884 64.8117 44.9325 63.7456 41.1711 66.6722C37.4097 69.5988 31.2367 75.708 30.0256 77.3019C28.8144 78.8958 19.4509 82.3822 19.4509 82.3822C19.4509 82.3822 22.4014 78.2614 21.1262 73.2131C21.1262 73.2131 19.7177 67.1253 20.39 64.6838C21.0622 62.2423 22.8068 53.1799 22.8068 53.1799C22.8068 53.1799 23.0523 43.6164 17.829 39.2291C12.6057 34.8419 8.97234 31.2329 10.9891 35.4975C11.8705 37.4525 12.8572 39.3584 13.9449 41.2069C13.9449 41.2069 1.45486 44.1708 5.88852 48.798C10.3222 53.4251 11.528 53.4304 11.528 53.4304C11.528 53.4304 10.0501 64.8544 9.77797 66.9814C9.50587 69.1084 7.1103 85.3141 7.1103 85.3141C7.1103 85.3141 6.97693 93.0225 8.32143 94.2166C8.32143 94.2166 9.20174 99.1796 14.7665 99.0143C14.7665 99.0143 25.3732 98.7478 28.3289 97.5537C31.2847 96.3596 41.4859 89.9786 42.5636 90.3784C42.6417 90.4098 42.7126 90.457 42.7717 90.517C42.829 90.5662 42.8825 90.6197 42.9317 90.6769C41.8647 93.0385 39.3357 101.056 40.4134 104.996C40.4134 104.996 39.4744 116.153 45.1139 119.741C45.1139 119.741 53.3036 133.558 50.2144 140.995C49.969 141.597 49.7503 142.151 49.5475 142.69C44.8578 138.804 37.7031 135.227 26.7763 133.249C25.6612 133.046 24.5515 132.801 23.4524 132.535C20.3473 131.783 11.8054 131.095 7.73987 144.588C6.79175 147.724 5.5854 150.776 4.13318 153.714C2.53258 156.95 0.755933 161.588 0.718586 166.188C0.627885 172.638 3.96247 179.03 16.063 181.376C16.1964 186.173 16.7459 191.888 18.3892 195.998C21.7451 204.367 27.1178 217.918 27.1178 217.918C27.1178 217.918 33.5629 231.736 33.9684 237.312C34.2298 240.964 34.6139 245.751 34.3472 249.04C34.3472 249.242 34.3152 249.434 34.2938 249.626C33.7409 250.222 33.1376 250.77 32.4905 251.263C31.5515 251.796 28.4623 255.117 28.4623 255.911C28.4689 256.672 28.5367 257.432 28.6651 258.182C27.2032 259.456 26.4029 260.847 26.4029 262.234C26.4029 269.441 46.8745 275.283 72.1267 275.283C97.3788 275.283 117.845 269.419 117.845 262.234C117.845 255.655 100.772 250.218 78.5878 249.322C83.2135 247.478 87.3217 245.543 89.0237 243.991C89.3889 243.707 89.6678 243.327 89.8293 242.893L85.5343 232.93C85.5343 232.93 85.1982 233.005 84.702 233.149L84.4033 232.701C82.4932 229.795 78.8172 224.006 78.8172 222.434C78.8172 221.853 77.8461 218.137 76.4376 213.046V196.707C90.4482 198.839 108.503 195.939 108.503 195.939L108.583 195.897H108.935V195.705C111.363 194.361 123.506 187.255 127.107 177.831C128.174 175.08 126.846 171.14 124.205 166.929C126.051 162.35 130.607 150.521 130.154 145.803C130.154 145.552 130.122 145.27 130.122 144.993C130.165 144.511 130.183 144.027 130.175 143.543C130.709 136.613 134.977 123.952 134.977 123.952C134.977 123.952 134.95 123.733 134.897 123.414ZM44.1962 92.6227C45.1672 94.3285 46.2076 96.5088 46.6184 97.3938C46.6184 97.3938 45.1992 94.7817 44.2229 92.6227H44.1962ZM45.2099 241.939L45.1086 241.976V241.443C45.0506 240.053 45.0845 238.66 45.2099 237.275C45.2247 236.528 45.0677 235.787 44.7511 235.11C43.1067 230.983 42.0073 226.658 41.4805 222.247C40.947 217.599 40.5041 212.529 40.7816 211.239C41.1977 209.261 41.5392 194.281 41.0217 186.898L49.2808 188.753L58.8844 208.318C58.8844 208.318 65.0627 217.87 66.9781 225.408V232.957C66.418 235.205 65.4387 237.329 64.0916 239.215C62.8165 240.958 61.5734 242.723 60.4209 244.546C60.0688 245.111 59.6793 245.692 59.2898 246.236C59.1618 246.236 52.8501 246.604 51.7777 247.787C51.1161 248.517 49.9637 249.669 49.7716 250.826L49.4995 250.868C48.2617 247.185 45.2366 241.939 45.2366 241.939H45.2099Z" fill="url(#paint0_linear)"/>
<defs>
<linearGradient id="paint0_linear" x1="67.8264" y1="275.257" x2="67.8264" y2="0.138192" gradientUnits="userSpaceOnUse">
<stop stop-color="#808080" stop-opacity="0.25"/>
<stop offset="0.54" stop-color="#808080" stop-opacity="0.12"/>
<stop offset="1" stop-color="#808080" stop-opacity="0.1"/>
</linearGradient>
</defs>
</svg>
