<svg width="22" height="21" viewBox="0 0 22 21" fill="none" xmlns="http://www.w3.org/2000/svg">
<path opacity="0.3" d="M21.636 12.4827C21.6389 12.5074 21.6389 12.5325 21.636 12.5573C21.1024 15.0894 12.2991 18.5545 12.2991 18.5545C12.2991 18.5545 6.69704 19.4874 3.49584 20.287C3.2509 20.353 2.99642 20.3764 2.74354 20.3563C0.273279 20.1697 0.161255 15.42 0.161255 14.6896C0.161255 13.9593 3.22907 10.5582 4.16276 10.0252C5.23547 9.13913 6.24125 8.17517 7.17189 7.14117C9.85214 4.35054 13.102 2.16883 16.7008 0.744178L16.8502 0.685547C16.8502 0.685547 22.0628 9.85456 21.636 12.4827Z" fill="black"/>
</svg>
