<svg width="50" height="44" viewBox="0 0 50 44" fill="none" xmlns="http://www.w3.org/2000/svg">
<path d="M49.3638 22.2098L42.2945 37.4293L33.8914 43.5598L32.4241 34.0869C32.4241 34.0869 29.5858 27.8232 28.364 26.7624C28.3049 26.7024 28.234 26.6552 28.1559 26.6237C27.0888 26.2239 16.9517 32.6209 14.0172 33.8204C11.0828 35.0198 0.545532 35.2863 0.545532 35.2863L5.21395 18.6275C5.21395 18.6275 14.5508 15.1625 15.7512 13.5632C16.9517 11.964 23.0873 5.83355 26.822 2.9016C30.5568 -0.0303468 37.37 1.03582 37.37 1.03582L37.4767 1.07846L39.2267 1.83544L44.2953 14.2296L49.3638 22.2098Z" fill="#FDC2CC"/>
</svg>
