<svg width="485" height="318" viewBox="0 0 485 318" fill="none" xmlns="http://www.w3.org/2000/svg">
<path opacity="0.1" d="M150.376 16.6694C166.798 2.04699 192.584 -0.922281 216.049 0.229177C289.762 3.89145 356.299 39.4427 413.851 79.6585C434.686 94.2169 455.2 109.906 468.725 129.955C496.255 170.773 488.092 227.312 449.806 260.933C436.782 272.373 420.995 281.142 404.781 288.92C375.97 302.743 344.86 313.836 312.149 316.997C288.818 319.247 265.198 317.419 242.011 314.273C177.208 305.499 113.616 286.068 60.3105 252.868C36.931 238.298 14.8908 220.19 5.25517 196.617C-4.38045 173.044 1.78719 143.202 25.6842 129.235C35.5599 123.467 47.367 120.86 58.9233 118.414C75.9377 114.81 93.2242 111.26 108.574 103.94C124.431 96.3759 143.211 81.7481 140.052 65.0253C136.659 47.0498 133.991 31.2546 150.376 16.6694Z" fill="#6C63FF"/>
</svg>
