<svg width="97" height="130" viewBox="0 0 97 130" fill="none" xmlns="http://www.w3.org/2000/svg">
<path d="M91.8475 122.182C86.8166 124.646 81.6509 126.826 76.3751 128.712C67.1716 132.044 46.8973 127.646 44.363 126.979C41.8288 126.313 22.3548 118.583 14.8853 115.651C7.41583 112.719 5.54846 115.118 3.81448 114.852C2.08049 114.585 0.880042 111.253 0.613275 110.32C0.346508 109.388 5.41508 101.258 8.21613 97.1266C11.0172 92.9952 19.4203 93.7949 20.6208 93.5283C21.8212 93.2618 30.2244 93.5283 30.2244 93.5283C30.2244 93.5283 29.6909 90.8629 32.7587 83.3998C35.8265 75.9366 27.6901 62.0765 27.6901 62.0765C22.088 58.4781 23.0217 47.2834 23.0217 47.2834C21.6879 42.3524 25.9561 31.0244 25.9561 32.3571C25.9561 33.6898 29.2374 39.687 29.2374 39.687C39.3745 36.222 36.2266 22.7616 36.2266 22.7616C36.2266 22.7616 34.7594 8.76821 34.37 7.03569C33.9805 5.30317 36.2266 5.56971 36.2266 5.56971C36.6606 5.79361 37.0981 6.00684 37.5392 6.20942C44.5605 9.51453 52.2433 10.7193 57.696 11.1351C60.1374 11.3419 62.5893 11.3971 65.0375 11.3003C89.4039 7.37153 85.0877 1.10781 84.9276 0.883911L86.112 1.30505C94.9153 7.70204 92.2477 28.8921 92.2477 28.8921L88.9504 44.7086L86.5015 56.4898C86.5015 56.4898 95.1714 108.998 95.9717 111.664C96.772 114.329 91.8475 122.182 91.8475 122.182Z" fill="#6C63FF"/>
</svg>
