<svg width="102" height="65" viewBox="0 0 102 65" fill="none" xmlns="http://www.w3.org/2000/svg">
<path opacity="0.1" d="M23.1727 1.01438C20.0942 0.262732 11.6057 -0.430274 7.56683 13.11C6.62652 16.2539 5.42917 19.3152 3.98684 22.2631C0.113383 30.206 -4.89117 46.5503 17.1171 50.1486L69.9369 62.143C69.9369 62.143 98.2142 65.608 100.082 64.2753C101.949 62.9426 101.682 60.0107 101.682 60.0107C101.682 60.0107 70.4705 60.0107 64.3348 50.4152C58.1992 40.8197 57.9324 27.7591 57.9324 27.7591C57.9324 27.7591 58.7007 7.59261 26.4539 1.73403C25.3869 1.53146 24.2664 1.27026 23.1727 1.01438Z" fill="black"/>
</svg>
