<svg width="22" height="22" viewBox="0 0 22 22" fill="none" xmlns="http://www.w3.org/2000/svg">
<path d="M20.623 21.2026C20.5683 21.2026 20.5142 21.1919 20.4637 21.171C20.4131 21.15 20.3673 21.1193 20.3287 21.0806L0.292167 1.04587C0.214163 0.967751 0.170362 0.861816 0.17041 0.751389C0.170458 0.640963 0.214343 0.535084 0.292414 0.457034C0.370485 0.378984 0.476339 0.335157 0.5867 0.335205C0.697061 0.335253 0.802912 0.379164 0.880915 0.457282L20.9174 20.492C20.9755 20.5503 21.0152 20.6244 21.0312 20.7052C21.0472 20.786 21.039 20.8697 21.0075 20.9457C20.976 21.0218 20.9226 21.0868 20.8542 21.1325C20.7858 21.1782 20.7053 21.2026 20.623 21.2026Z" fill="#3F3D56"/>
</svg>
