<svg width="30" height="101" viewBox="0 0 30 101" fill="none" xmlns="http://www.w3.org/2000/svg">
<path d="M29.8235 85.0318C29.698 86.4212 29.6641 87.8173 29.7221 89.2111C29.7595 90.6984 29.8235 91.9618 29.8235 91.9618L26.7557 98.3588C26.7557 98.3588 16.2184 101.824 17.9524 100.358C18.5553 99.8515 18.8647 98.5347 19.0194 96.7916C19.2809 93.4971 18.9021 88.694 18.6406 85.0318C18.2405 79.4344 11.8381 65.5742 11.8381 65.5742C11.8381 65.5742 6.50274 51.9806 3.16816 43.5846C-0.166426 35.1885 1.03402 19.9957 1.03402 19.9957C1.03402 19.9957 1.56756 8.53442 3.96846 5.06938C6.36936 1.60434 15.7062 0.404907 15.7062 0.404907L20.0865 14.9207C20.0865 14.9207 23.6879 28.5143 25.0217 30.5134C26.3555 32.5125 25.9554 56.3679 25.4218 58.9C25.1497 60.1954 25.6086 65.297 26.1208 69.9455C26.6435 74.367 27.7338 78.7028 29.3647 82.8461C29.6831 83.5299 29.84 84.2777 29.8235 85.0318V85.0318Z" fill="#FDC2CC"/>
</svg>
