<svg width="44" height="81" viewBox="0 0 44 81" fill="none" xmlns="http://www.w3.org/2000/svg">
<path d="M43.8385 62.0891L41.7044 69.0191L32.6343 76.8821L19.296 80.7096C19.296 80.7096 13.027 77.2819 15.1611 76.6156C15.7533 76.429 16.4576 75.7519 17.1725 74.867C17.8163 74.0461 18.4113 73.1882 18.9545 72.2976C20.0963 70.4638 21.3341 68.694 22.5985 66.9668C24.4436 64.3427 25.601 61.2984 25.9651 58.1123C26.8988 50.7824 17.4286 35.9893 17.4286 35.9893L0.222168 0.672607L24.2312 3.60456C24.2312 3.60456 37.1693 47.9837 37.1693 50.116C37.1693 51.7153 40.8187 57.4992 42.7181 60.4152C43.385 61.4334 43.8385 62.0891 43.8385 62.0891Z" fill="#FDC2CC"/>
</svg>
