<svg width="59" height="93" viewBox="0 0 59 93" fill="none" xmlns="http://www.w3.org/2000/svg">
<path opacity="0.1" d="M57.9299 76.8923L54.1951 92.6982C52.2897 91.8298 50.5382 90.6577 49.0092 89.2278C47.8194 88.0977 46.7523 86.8023 45.2211 86.0613C43.2524 85.1071 40.8781 85.235 38.6426 85.155C35.8501 85.0509 33.0837 84.5776 30.4155 83.7477C29.6405 83.5534 28.914 83.2013 28.2814 82.7135C27.0116 81.594 27.097 79.7869 27.2143 78.209C27.4464 75.1418 27.4731 72.0627 27.2943 68.992C27.2623 68.4162 27.2197 67.8405 27.1716 67.2648C26.9582 64.69 26.2646 61.7047 23.629 60.6013C22.2738 60.0682 20.6572 60.1108 19.3607 59.4658C19.1734 59.3717 18.9948 59.2611 18.8272 59.1353C16.9064 57.7919 16.7304 55.0998 16.8051 52.8342C16.9189 49.721 17.0274 46.6061 17.1305 43.4893C17.2277 41.9521 17.1938 40.4095 17.0292 38.8781C16.9007 37.8612 16.6201 36.8692 16.1968 35.9355C15.0391 33.462 12.6275 31.399 12.1953 28.7869C12.1715 28.6654 12.1555 28.5426 12.1473 28.4191C11.9233 26.0842 13.3958 23.9092 13.9133 21.6116C14.9484 16.9898 11.4697 11.9255 6.35314 10.5981C4.75254 10.1823 3.03458 10.1023 1.43931 9.62789C1.18421 9.55178 0.933112 9.46282 0.687012 9.36135C4.5498 4.21178 11.1709 0.832031 18.6884 0.832031C30.6022 0.832031 40.2645 9.36135 40.2645 19.8897C40.2645 25.8603 37.154 31.1858 32.2935 34.6828C32.3256 34.832 32.3629 34.9866 32.4056 35.1359C33.6594 39.9816 37.5489 45.0566 37.5489 45.0566L49.6281 48.8948L50.9726 49.3212C60.9497 55.7129 57.9299 76.8923 57.9299 76.8923Z" fill="black"/>
</svg>
