<svg width="41" height="24" viewBox="0 0 41 24" fill="none" xmlns="http://www.w3.org/2000/svg">
<path d="M40.1068 10.6183C39.9448 11.0517 39.6682 11.433 39.3065 11.7218C36.0093 14.7444 23.6793 19.2383 16.0604 21.6798C14.0634 22.3762 12.0271 22.9547 9.96215 23.4123C8.09478 23.5456 4.22666 22.3461 1.55899 20.7096C-1.10868 19.073 1.29223 16.7488 2.36997 15.5493C3.44771 14.3499 9.83945 13.9927 9.83945 13.9927C6.77163 19.0943 14.3691 14.6164 14.3691 14.6164C14.3691 14.6164 29.7082 3.68827 31.3088 2.48883C32.9094 1.2894 35.8439 0.623047 35.8439 0.623047L40.1068 10.6183Z" fill="#6C63FF"/>
</svg>
