<svg width="40" height="41" viewBox="0 0 40 41" fill="none" xmlns="http://www.w3.org/2000/svg">
<path d="M33.9964 4.50984C33.4845 5.21073 33.0749 5.98073 32.7799 6.79677C32.7052 6.99934 32.6305 7.22323 32.5558 7.44179C32.4212 7.37804 32.2798 7.32976 32.1343 7.29786C31.5122 7.14226 30.8693 7.08648 30.2296 7.13261C30.2296 6.88739 30.2616 6.59952 30.267 6.3543C30.347 3.54496 30.0162 -0.373185 27.3325 1.2847C24.7609 2.88395 26.5963 5.54935 28.2555 7.26055L28.6824 7.67635C27.1671 8.74251 26.879 11.264 26.6283 13.8814C26.3775 16.4989 24.1527 19.3668 22.6748 20.9927C22.5254 21.158 22.392 21.3073 22.2586 21.4459C21.6619 20.9683 20.9704 20.623 20.2299 20.4327C19.4894 20.2425 18.717 20.2117 17.9637 20.3424C17.905 20.1132 17.8356 19.8733 17.7663 19.6174C16.5712 15.3101 14.0902 7.8416 10.9264 6.20504L11.3425 5.67195C12.687 3.91278 14.2023 1.30602 11.9668 0.63434C9.73126 -0.0373438 9.52852 2.89994 9.65123 5.09623C9.65123 5.37344 9.69391 5.62931 9.71525 5.87453C9.26861 5.89613 8.83105 6.00843 8.42927 6.20457C8.02749 6.4007 7.66992 6.67656 7.37837 7.01533L7.03158 6.61018C5.21756 4.47786 1.89364 1.08213 0.885266 3.64625C-0.0537537 6.03446 2.87535 9.13167 4.93479 10.9282L5.06284 11.0401C3.68098 16.6534 9.69924 21.238 12.9645 23.221L13.386 23.4769C8.90428 28.7544 6.13524 38.6431 6.13524 38.6431L18.684 40.882C18.684 40.882 27.0071 33.7121 25.94 26.9739H26.0254C34.3432 25.3107 36.2319 16.4509 34.9354 11.1894L35.0848 11.1307C36.5991 10.5097 37.9264 9.5068 38.9369 8.22009C41.2631 4.98428 36.3759 1.338 33.9964 4.50984Z" fill="#6C63FF"/>
</svg>
