<svg width="58" height="57" viewBox="0 0 58 57" fill="none" xmlns="http://www.w3.org/2000/svg">
<path d="M42.4105 26.5302L22.3444 14.344C21.9275 14.1134 21.4577 13.9952 20.9813 14.0012C20.5048 14.0072 20.0382 14.1371 19.6273 14.3782C19.2164 14.6192 18.8755 14.9631 18.6381 15.3759C18.4007 15.7887 18.275 16.2561 18.2735 16.7322V40.433C18.275 40.9091 18.4007 41.3766 18.6381 41.7894C18.8755 42.2021 19.2164 42.546 19.6273 42.787C20.0382 43.0281 20.5048 43.158 20.9813 43.164C21.4577 43.17 21.9275 43.0519 22.3444 42.8212L42.4105 31.3173C42.8358 31.0786 43.1898 30.7311 43.4362 30.3104C43.6826 29.8898 43.8125 29.4112 43.8125 28.9238C43.8125 28.4364 43.6826 27.9578 43.4362 27.5371C43.1898 27.1165 42.8358 26.769 42.4105 26.5302V26.5302ZM57.4989 28.5826C57.4989 22.9946 55.8404 17.5321 52.7333 12.8859C49.6261 8.23964 45.2098 4.61833 40.0429 2.4799C34.8759 0.341472 29.1902 -0.218048 23.705 0.872115C18.2197 1.96228 13.1812 4.65316 9.22656 8.60446C5.27191 12.5558 2.57877 17.59 1.48769 23.0707C0.396606 28.5513 0.956583 34.2321 3.09682 39.3947C5.23706 44.5573 8.86142 48.9699 13.5116 52.0744C18.1618 55.179 23.6289 56.836 29.2216 56.836C36.7212 56.836 43.9136 53.8593 49.2166 48.5608C54.5196 43.2622 57.4989 36.0759 57.4989 28.5826V28.5826ZM6.41838 28.5826C6.41838 24.0764 7.75577 19.6713 10.2614 15.9245C12.7671 12.1777 16.3285 9.25746 20.4952 7.53299C24.6619 5.80853 29.2469 5.35733 33.6703 6.23645C38.0937 7.11558 42.1568 9.28554 45.3459 12.4719C48.535 15.6583 50.7068 19.718 51.5867 24.1377C52.4665 28.5573 52.0149 33.1384 50.289 37.3017C48.5631 41.4649 45.6404 45.0232 41.8904 47.5268C38.1404 50.0303 33.7317 51.3666 29.2216 51.3666C26.2269 51.3673 23.2613 50.7784 20.4944 49.6337C17.7274 48.4889 15.2134 46.8107 13.0957 44.6949C10.9781 42.579 9.29847 40.0671 8.15275 37.3025C7.00703 34.5379 6.41768 31.5748 6.41838 28.5826V28.5826Z" fill="#6C63FF"/>
</svg>
