<svg width="20" height="67" viewBox="0 0 20 67" fill="none" xmlns="http://www.w3.org/2000/svg">
<path d="M18.5485 50.8375L15.2139 49.6274C15.2139 49.6274 18.1483 45.496 16.8839 40.4317C16.8839 40.4317 15.4807 34.3226 16.1476 31.8491C16.8145 29.3756 18.5485 20.3079 18.5485 20.3079C18.5485 20.3079 18.7939 10.7124 13.6026 6.31447C8.41133 1.91654 4.80998 -1.68177 6.81074 2.58289C7.68447 4.54471 8.66406 6.45773 9.74518 8.31353C9.74518 8.31353 -2.65949 11.2828 1.74216 15.9313C6.14382 20.5798 7.34427 20.5744 7.34427 20.5744C7.34427 20.5744 5.87705 32.0357 5.61029 34.168C5.34352 36.3003 2.94262 52.5594 2.94262 52.5594C2.94262 52.5594 2.80923 60.289 4.14307 61.4885C4.43932 62.9316 5.25415 64.2165 6.43371 65.1004C7.61327 65.9843 9.07592 66.4061 10.5455 66.2862C11.4952 66.2702 22.8168 53.7694 18.5485 50.8375Z" fill="#FDC2CC"/>
</svg>
