<svg width="39" height="39" viewBox="0 0 39 39" fill="none" xmlns="http://www.w3.org/2000/svg">
<path d="M38.6419 19.8843C38.6419 24.9387 36.6323 29.7861 33.0553 33.3601C29.4782 36.9341 24.6267 38.9419 19.568 38.9419C19.0772 38.9419 18.5863 38.9419 18.1061 38.8886C14.4073 38.6035 10.872 37.2468 7.93314 34.9848C4.99426 32.7227 2.77941 29.6534 1.55977 26.1528C0.340136 22.6522 0.168671 18.8722 1.06639 15.2757C1.96411 11.6792 3.89205 8.42237 6.61409 5.90397C9.33612 3.38557 12.7341 1.71495 16.3919 1.09669C20.0498 0.478441 23.8086 0.93938 27.2083 2.42309C30.6079 3.90679 33.5007 6.34886 35.5324 9.45021C37.5642 12.5516 38.6466 16.1776 38.6472 19.8843H38.6419Z" fill="#FDC2CC"/>
</svg>
