<svg width="72" height="105" viewBox="0 0 72 105" fill="none" xmlns="http://www.w3.org/2000/svg">
<path opacity="0.1" d="M25.2342 1.32695C21.896 0.552086 18.4814 0.153351 15.0543 0.138184C13.9393 0.138184 12.7441 0.196812 11.8531 0.809857C10.674 1.63613 10.5247 3.12878 10.1725 4.41884C9.5355 6.57307 8.19188 8.45065 6.35775 9.74966C5.09327 10.6719 3.60472 11.3489 2.3936 12.3191C1.18247 13.2893 0.259466 14.7287 0.56358 16.1467C0.867694 17.5647 2.46296 18.6575 4.06356 19.1106C5.66416 19.5637 7.36614 19.6437 8.97741 20.0808C14.094 21.4082 17.5673 26.4778 16.5322 31.089C15.9987 33.3865 14.5422 35.5615 14.7662 37.8964C15.0277 40.6844 17.6047 42.8328 18.8158 45.4182C19.9202 47.7745 19.8455 50.4185 19.7601 52.9667L19.4347 62.3169C19.3493 64.7798 19.5627 67.7437 21.9956 68.9485C23.2974 69.5882 24.9194 69.5189 26.2639 70.084C28.8995 71.1821 29.5931 74.1727 29.8066 76.7422C30.1115 80.3833 30.1258 84.0429 29.8492 87.6863C29.7265 89.2856 29.6412 91.0714 30.9163 92.1909C31.5475 92.6808 32.2746 93.0331 33.0504 93.2251C35.7186 94.055 38.485 94.5282 41.2775 94.6324C43.5184 94.7177 45.8873 94.5898 47.856 95.5387C49.3872 96.2796 50.4543 97.5803 51.6441 98.7051C55.0554 101.824 59.404 103.726 64.0114 104.116C64.9984 104.201 66.1188 104.18 66.8071 103.546C67.4953 102.911 67.0899 101.541 66.1082 101.621C66.9421 101.761 67.7984 101.676 68.5883 101.374C69.3781 101.072 70.0729 100.565 70.6005 99.9046C71.0494 99.267 71.2903 98.5065 71.2903 97.727C71.2903 96.9474 71.0494 96.1869 70.6005 95.5493C69.4854 93.9501 67.1166 92.8839 66.9885 90.9861C66.9191 89.92 67.6287 88.9551 68.1836 88.0062C69.5213 85.6437 70.0552 82.9111 69.705 80.2193C69.3548 77.5275 68.1394 75.0221 66.2415 73.0799C63.7393 70.4944 59.9885 68.5327 59.1135 65.2169C58.532 62.9993 59.4123 60.6697 59.0762 58.4148C58.5427 54.6832 54.8453 52.0178 52.8125 48.6913C50.7798 45.3649 50.4223 41.3401 50.9398 37.5553C51.4573 33.7704 52.7698 30.0921 53.8369 26.4138C54.6319 23.6684 55.2881 20.7525 54.4024 18.0284C53.7675 16.0933 52.4017 14.4141 50.9825 12.8309C47.5839 9.04066 43.6731 5.49033 38.8393 3.23539C34.0055 0.980453 28.1153 0.106186 22.9827 1.77474" fill="black"/>
</svg>
